<mxfile host="app.diagrams.net" modified="2021-07-09T09:44:06.654Z" agent="5.0 (Windows NT 10.0; Win64; x64) AppleWebKit/537.36 (KHTML, like Gecko) Chrome/91.0.4472.124 Safari/537.36 Edg/91.0.864.67" etag="pfzHfPj8HcG7kF9yiyUT" version="14.8.5" type="github" pages="7">
  <diagram id="7QcvH00Ai8PCEHtqAPEW" name="微服务调用流程">
    <mxGraphModel dx="2088" dy="482" grid="1" gridSize="10" guides="1" tooltips="1" connect="0" arrows="1" fold="1" page="1" pageScale="1" pageWidth="980" pageHeight="690" math="0" shadow="1">
      <root>
        <mxCell id="hdogqXHSBpEaAjrL4_Qm-0" />
        <mxCell id="hdogqXHSBpEaAjrL4_Qm-1" parent="hdogqXHSBpEaAjrL4_Qm-0" />
        <mxCell id="zKTPC_A6eEu45X3fTq7L-4" value="CR" style="edgeStyle=none;rounded=0;orthogonalLoop=1;jettySize=auto;html=1;fontFamily=Helvetica;fontSize=8;" parent="hdogqXHSBpEaAjrL4_Qm-1" source="zKTPC_A6eEu45X3fTq7L-0" target="zKTPC_A6eEu45X3fTq7L-3" edge="1">
          <mxGeometry relative="1" as="geometry" />
        </mxCell>
        <mxCell id="zKTPC_A6eEu45X3fTq7L-0" value="&lt;h1&gt;CMG&lt;/h1&gt;" style="rounded=0;whiteSpace=wrap;html=1;shadow=1;fontFamily=Helvetica;fontSize=8;align=center;" parent="hdogqXHSBpEaAjrL4_Qm-1" vertex="1">
          <mxGeometry x="-50" y="80" width="120" height="60" as="geometry" />
        </mxCell>
        <mxCell id="zKTPC_A6eEu45X3fTq7L-7" value="list watch" style="edgeStyle=none;rounded=0;orthogonalLoop=1;jettySize=auto;html=1;fontFamily=Helvetica;fontSize=8;startArrow=classicThin;startFill=1;" parent="hdogqXHSBpEaAjrL4_Qm-1" source="zKTPC_A6eEu45X3fTq7L-3" target="zKTPC_A6eEu45X3fTq7L-5" edge="1">
          <mxGeometry relative="1" as="geometry">
            <mxPoint x="290" y="260" as="targetPoint" />
          </mxGeometry>
        </mxCell>
        <mxCell id="zKTPC_A6eEu45X3fTq7L-3" value="&lt;span&gt;K8S&amp;nbsp; ApiServer&lt;/span&gt;" style="ellipse;shape=cloud;whiteSpace=wrap;html=1;rounded=0;shadow=1;fontSize=8;" parent="hdogqXHSBpEaAjrL4_Qm-1" vertex="1">
          <mxGeometry x="180" y="70" width="120" height="80" as="geometry" />
        </mxCell>
        <mxCell id="84nE5ot_cG_BJnyZ2Ct3-1" value="" style="edgeStyle=orthogonalEdgeStyle;curved=0;rounded=1;sketch=0;orthogonalLoop=1;jettySize=auto;html=1;exitX=0.467;exitY=1.067;exitDx=0;exitDy=0;exitPerimeter=0;" parent="hdogqXHSBpEaAjrL4_Qm-1" source="cLjiAWQgn1-5IM3SHc4H-0" target="84nE5ot_cG_BJnyZ2Ct3-0" edge="1">
          <mxGeometry relative="1" as="geometry" />
        </mxCell>
        <mxCell id="ZomJhwY5Qn4O2pSg4ZhM-9" value="记录数据库" style="edgeLabel;html=1;align=center;verticalAlign=middle;resizable=0;points=[];fontColor=#141414;" parent="84nE5ot_cG_BJnyZ2Ct3-1" vertex="1" connectable="0">
          <mxGeometry x="-0.3101" y="2" relative="1" as="geometry">
            <mxPoint as="offset" />
          </mxGeometry>
        </mxCell>
        <mxCell id="REnGQltveiTFZSzDhmxL-0" value="调用" style="edgeStyle=none;curved=1;sketch=0;orthogonalLoop=1;jettySize=auto;html=1;startArrow=none;startFill=0;" parent="hdogqXHSBpEaAjrL4_Qm-1" source="zKTPC_A6eEu45X3fTq7L-5" target="UfGcfgyKQdFJ5vjehDNS-1" edge="1">
          <mxGeometry relative="1" as="geometry" />
        </mxCell>
        <mxCell id="zKTPC_A6eEu45X3fTq7L-5" value="operator" style="rounded=1;whiteSpace=wrap;html=1;shadow=1;fontFamily=Helvetica;fontSize=8;align=center;fillColor=#b0e3e6;strokeColor=#0e8088;" parent="hdogqXHSBpEaAjrL4_Qm-1" vertex="1">
          <mxGeometry x="180" y="210" width="120" height="60" as="geometry" />
        </mxCell>
        <mxCell id="84nE5ot_cG_BJnyZ2Ct3-0" value="" style="shape=cylinder3;whiteSpace=wrap;html=1;boundedLbl=1;backgroundOutline=1;size=15;rounded=0;sketch=0;fillColor=#d0cee2;strokeColor=#56517e;" parent="hdogqXHSBpEaAjrL4_Qm-1" vertex="1">
          <mxGeometry x="460" y="510" width="60" height="80" as="geometry" />
        </mxCell>
        <mxCell id="58FKScHTOD0fjgMbz1a8-3" value="" style="edgeStyle=none;rounded=1;sketch=0;orthogonalLoop=1;jettySize=auto;html=1;strokeColor=#99004D;" parent="hdogqXHSBpEaAjrL4_Qm-1" source="84nE5ot_cG_BJnyZ2Ct3-4" target="58FKScHTOD0fjgMbz1a8-2" edge="1">
          <mxGeometry relative="1" as="geometry" />
        </mxCell>
        <mxCell id="9cWwLL8GZN13nF_U3lui-0" value="&lt;span style=&quot;font-size: 9pt&quot;&gt;&lt;font face=&quot;Times New Roman&quot;&gt;https://&lt;/font&gt;&lt;/span&gt;&lt;span style=&quot;font-size: 9pt ; font-family: &amp;#34;times new roman&amp;#34;&quot;&gt;{&lt;/span&gt;&lt;span style=&quot;font-size: 9pt&quot;&gt;&lt;font face=&quot;Times New Roman&quot;&gt;AMG&lt;/font&gt;&lt;font face=&quot;宋体&quot;&gt;的&lt;/font&gt;&lt;/span&gt;&lt;span style=&quot;font-size: 9pt ; font-family: &amp;#34;times new roman&amp;#34;&quot;&gt;IP&lt;font face=&quot;宋体&quot;&gt;承载网域名&lt;/font&gt;&lt;font face=&quot;Times New Roman&quot;&gt;}:{&lt;/font&gt;&lt;/span&gt;&lt;span style=&quot;font-size: 9pt&quot;&gt;&lt;font face=&quot;宋体&quot;&gt;端口&lt;/font&gt;&lt;/span&gt;&lt;span style=&quot;font-size: 9pt ; font-family: &amp;#34;times new roman&amp;#34;&quot;&gt;}&lt;/span&gt;&lt;span style=&quot;font-size: 9pt&quot;&gt;&lt;font face=&quot;Times New Roman&quot;&gt;/&lt;/font&gt;&lt;/span&gt;&lt;span style=&quot;font-size: 9pt ; font-family: &amp;#34;times new roman&amp;#34;&quot;&gt;amg&lt;/span&gt;&lt;span style=&quot;font-size: 9pt&quot;&gt;&lt;font face=&quot;Times New Roman&quot;&gt;route&lt;/font&gt;&lt;/span&gt;" style="edgeLabel;html=1;align=center;verticalAlign=middle;resizable=0;points=[];" parent="58FKScHTOD0fjgMbz1a8-3" vertex="1" connectable="0">
          <mxGeometry x="-0.3277" y="3" relative="1" as="geometry">
            <mxPoint as="offset" />
          </mxGeometry>
        </mxCell>
        <mxCell id="84nE5ot_cG_BJnyZ2Ct3-4" value="AMG-网关" style="rounded=0;whiteSpace=wrap;html=1;sketch=0;shadow=1;" parent="hdogqXHSBpEaAjrL4_Qm-1" vertex="1">
          <mxGeometry x="-300" y="80" width="120" height="60" as="geometry" />
        </mxCell>
        <mxCell id="58FKScHTOD0fjgMbz1a8-0" value="&lt;font face=&quot;宋体&quot;&gt;流控、熔断等上报接口&lt;/font&gt;" style="endArrow=classic;html=1;entryX=0.45;entryY=1;entryDx=0;entryDy=0;entryPerimeter=0;edgeStyle=orthogonalEdgeStyle;fontColor=#141414;strokeColor=#141414;exitX=0;exitY=0.85;exitDx=0;exitDy=0;exitPerimeter=0;" parent="hdogqXHSBpEaAjrL4_Qm-1" source="UfGcfgyKQdFJ5vjehDNS-1" target="zKTPC_A6eEu45X3fTq7L-0" edge="1">
          <mxGeometry width="50" height="50" relative="1" as="geometry">
            <mxPoint x="348" y="388" as="sourcePoint" />
            <mxPoint x="20" y="150" as="targetPoint" />
            <Array as="points">
              <mxPoint x="330" y="261" />
              <mxPoint x="330" y="310" />
              <mxPoint x="4" y="310" />
            </Array>
          </mxGeometry>
        </mxCell>
        <mxCell id="58FKScHTOD0fjgMbz1a8-12" value="" style="edgeStyle=none;rounded=1;sketch=0;orthogonalLoop=1;jettySize=auto;html=1;startArrow=classicThin;startFill=1;strokeColor=#CC0066;entryX=1;entryY=0.333;entryDx=0;entryDy=0;entryPerimeter=0;" parent="hdogqXHSBpEaAjrL4_Qm-1" source="58FKScHTOD0fjgMbz1a8-2" target="58FKScHTOD0fjgMbz1a8-13" edge="1">
          <mxGeometry relative="1" as="geometry" />
        </mxCell>
        <mxCell id="5svcY1SSpPLeqzfkWsX5-5" value="" style="edgeStyle=none;curved=1;sketch=0;orthogonalLoop=1;jettySize=auto;html=1;startArrow=none;startFill=0;strokeColor=#CC0066;" parent="hdogqXHSBpEaAjrL4_Qm-1" source="58FKScHTOD0fjgMbz1a8-2" target="5svcY1SSpPLeqzfkWsX5-3" edge="1">
          <mxGeometry relative="1" as="geometry" />
        </mxCell>
        <mxCell id="qbtHAzbWiTw2XCngsW65-0" value="" style="edgeStyle=orthogonalEdgeStyle;rounded=0;orthogonalLoop=1;jettySize=auto;html=1;" parent="hdogqXHSBpEaAjrL4_Qm-1" source="58FKScHTOD0fjgMbz1a8-2" target="58FKScHTOD0fjgMbz1a8-11" edge="1">
          <mxGeometry relative="1" as="geometry" />
        </mxCell>
        <mxCell id="58FKScHTOD0fjgMbz1a8-2" value="&lt;p class=&quot;MsoNormal&quot;&gt;&lt;span style=&quot;font-family: &amp;#34;times new roman&amp;#34; ; font-size: 10.5pt&quot;&gt;&lt;font face=&quot;宋体&quot;&gt;服务调用网关&lt;/font&gt;&lt;/span&gt;&lt;/p&gt;&lt;p class=&quot;MsoNormal&quot;&gt;&lt;span style=&quot;font-size: 10.5pt&quot;&gt;&lt;font face=&quot;Times New Roman&quot;&gt;amg-api-gateway&lt;/font&gt;&lt;/span&gt;&lt;/p&gt;" style="rounded=1;whiteSpace=wrap;html=1;sketch=0;shadow=1;fillColor=#ffff88;strokeColor=#36393d;" parent="hdogqXHSBpEaAjrL4_Qm-1" vertex="1">
          <mxGeometry x="-300" y="375" width="120" height="60" as="geometry" />
        </mxCell>
        <mxCell id="5svcY1SSpPLeqzfkWsX5-1" value="" style="edgeStyle=none;curved=1;sketch=0;orthogonalLoop=1;jettySize=auto;html=1;startArrow=none;startFill=0;" parent="hdogqXHSBpEaAjrL4_Qm-1" source="58FKScHTOD0fjgMbz1a8-7" target="58FKScHTOD0fjgMbz1a8-13" edge="1">
          <mxGeometry relative="1" as="geometry" />
        </mxCell>
        <mxCell id="58FKScHTOD0fjgMbz1a8-7" value="Actor" style="shape=umlActor;verticalLabelPosition=bottom;verticalAlign=top;html=1;outlineConnect=0;rounded=1;shadow=1;glass=0;sketch=0;" parent="hdogqXHSBpEaAjrL4_Qm-1" vertex="1">
          <mxGeometry x="-476" y="670" width="30" height="60" as="geometry" />
        </mxCell>
        <mxCell id="58FKScHTOD0fjgMbz1a8-14" value="" style="edgeStyle=none;rounded=1;sketch=0;orthogonalLoop=1;jettySize=auto;html=1;startArrow=classicThin;startFill=1;" parent="hdogqXHSBpEaAjrL4_Qm-1" source="58FKScHTOD0fjgMbz1a8-11" target="58FKScHTOD0fjgMbz1a8-13" edge="1">
          <mxGeometry relative="1" as="geometry" />
        </mxCell>
        <mxCell id="58FKScHTOD0fjgMbz1a8-11" value="中继AMG" style="rounded=0;whiteSpace=wrap;html=1;sketch=0;shadow=1;" parent="hdogqXHSBpEaAjrL4_Qm-1" vertex="1">
          <mxGeometry x="-521" y="375" width="120" height="60" as="geometry" />
        </mxCell>
        <mxCell id="58FKScHTOD0fjgMbz1a8-13" value="其它省AMG" style="rounded=0;whiteSpace=wrap;html=1;sketch=0;shadow=1;" parent="hdogqXHSBpEaAjrL4_Qm-1" vertex="1">
          <mxGeometry x="-521" y="520" width="120" height="60" as="geometry" />
        </mxCell>
        <mxCell id="fqj1xfR9sEQ374SJdePA-6" value="" style="edgeStyle=none;sketch=0;orthogonalLoop=1;jettySize=auto;html=1;fontColor=#141414;startArrow=classicThin;startFill=1;strokeColor=#141414;dashed=1;endArrow=none;endFill=0;" parent="hdogqXHSBpEaAjrL4_Qm-1" source="aicW-fnA6qDHuhY_AQFV-3" target="fqj1xfR9sEQ374SJdePA-4" edge="1">
          <mxGeometry relative="1" as="geometry" />
        </mxCell>
        <mxCell id="aicW-fnA6qDHuhY_AQFV-4" value="日志" style="edgeStyle=none;sketch=0;orthogonalLoop=1;jettySize=auto;html=1;dashed=1;fontColor=#141414;startArrow=none;startFill=0;strokeColor=#141414;" parent="hdogqXHSBpEaAjrL4_Qm-1" source="5svcY1SSpPLeqzfkWsX5-3" target="aicW-fnA6qDHuhY_AQFV-3" edge="1">
          <mxGeometry relative="1" as="geometry" />
        </mxCell>
        <mxCell id="5svcY1SSpPLeqzfkWsX5-3" value="ESB？" style="rounded=1;whiteSpace=wrap;html=1;sketch=0;shadow=1;fillColor=#eeeeee;strokeColor=#36393d;" parent="hdogqXHSBpEaAjrL4_Qm-1" vertex="1">
          <mxGeometry x="-300" y="530" width="120" height="60" as="geometry" />
        </mxCell>
        <mxCell id="cLjiAWQgn1-5IM3SHc4H-4" value="" style="edgeStyle=orthogonalEdgeStyle;sketch=0;orthogonalLoop=1;jettySize=auto;html=1;startArrow=none;startFill=0;" parent="hdogqXHSBpEaAjrL4_Qm-1" source="UfGcfgyKQdFJ5vjehDNS-1" target="cLjiAWQgn1-5IM3SHc4H-1" edge="1">
          <mxGeometry relative="1" as="geometry" />
        </mxCell>
        <mxCell id="cLjiAWQgn1-5IM3SHc4H-5" value="" style="edgeStyle=orthogonalEdgeStyle;sketch=0;orthogonalLoop=1;jettySize=auto;html=1;startArrow=none;startFill=0;" parent="hdogqXHSBpEaAjrL4_Qm-1" source="UfGcfgyKQdFJ5vjehDNS-1" target="cLjiAWQgn1-5IM3SHc4H-0" edge="1">
          <mxGeometry relative="1" as="geometry" />
        </mxCell>
        <mxCell id="UfGcfgyKQdFJ5vjehDNS-1" value="&lt;span style=&quot;font-family: &amp;#34;times new roman&amp;#34; ; font-size: 10.5pt&quot;&gt;&lt;font face=&quot;宋体&quot;&gt;接口&lt;/font&gt;&lt;/span&gt;&lt;span style=&quot;font-size: 10.5pt&quot;&gt;对接&lt;/span&gt;&lt;span style=&quot;font-family: &amp;#34;times new roman&amp;#34; ; font-size: 14px&quot;&gt;&lt;br&gt;cmg-interface-proc&lt;/span&gt;" style="rounded=1;whiteSpace=wrap;html=1;sketch=0;fillColor=#ffff88;strokeColor=#36393d;" parent="hdogqXHSBpEaAjrL4_Qm-1" vertex="1">
          <mxGeometry x="440" y="210" width="120" height="60" as="geometry" />
        </mxCell>
        <mxCell id="Mm-TyVejt9eaW4gIl97c-3" value="" style="edgeStyle=none;rounded=0;orthogonalLoop=1;jettySize=auto;html=1;fontColor=#000000;endArrow=classicThin;endFill=1;entryX=0.567;entryY=0;entryDx=0;entryDy=0;entryPerimeter=0;exitX=0.033;exitY=0.98;exitDx=0;exitDy=0;exitPerimeter=0;" parent="hdogqXHSBpEaAjrL4_Qm-1" source="cLjiAWQgn1-5IM3SHc4H-0" target="Mm-TyVejt9eaW4gIl97c-0" edge="1">
          <mxGeometry relative="1" as="geometry">
            <mxPoint x="480" y="460" as="sourcePoint" />
            <mxPoint x="205" y="650" as="targetPoint" />
          </mxGeometry>
        </mxCell>
        <mxCell id="3xuIzsQuonJBNvC21Xvo-1" value="增量，全量下发通知" style="edgeLabel;html=1;align=center;verticalAlign=middle;resizable=0;points=[];" parent="Mm-TyVejt9eaW4gIl97c-3" vertex="1" connectable="0">
          <mxGeometry x="-0.3906" y="-1" relative="1" as="geometry">
            <mxPoint as="offset" />
          </mxGeometry>
        </mxCell>
        <mxCell id="cLjiAWQgn1-5IM3SHc4H-0" value="&lt;span style=&quot;font-size: 10.5pt&quot;&gt;&lt;font face=&quot;宋体&quot;&gt;&lt;font face=&quot;times new roman&quot;&gt;管理数据处理&lt;/font&gt;&lt;br&gt;&lt;/font&gt;&lt;/span&gt;&lt;span style=&quot;font-size: 10.5pt&quot;&gt;&lt;font face=&quot;Times New Roman&quot;&gt;cmg&lt;/font&gt;&lt;/span&gt;&lt;span style=&quot;font-family: &amp;#34;times new roman&amp;#34; ; font-size: 10.5pt&quot;&gt;-globaldata-proc&lt;br&gt;&lt;/span&gt;" style="rounded=1;shadow=1;glass=0;sketch=0;horizontal=1;verticalAlign=middle;whiteSpace=wrap;labelBackgroundColor=none;html=1;fillColor=#ffff88;strokeColor=#36393d;" parent="hdogqXHSBpEaAjrL4_Qm-1" vertex="1">
          <mxGeometry x="352" y="360" width="120" height="50" as="geometry" />
        </mxCell>
        <mxCell id="cLjiAWQgn1-5IM3SHc4H-3" value="记录数据库" style="sketch=0;orthogonalLoop=1;jettySize=auto;html=1;startArrow=none;startFill=0;exitX=0.5;exitY=1;exitDx=0;exitDy=0;exitPerimeter=0;edgeStyle=orthogonalEdgeStyle;" parent="hdogqXHSBpEaAjrL4_Qm-1" source="cLjiAWQgn1-5IM3SHc4H-1" edge="1">
          <mxGeometry relative="1" as="geometry">
            <mxPoint x="490" y="510" as="targetPoint" />
          </mxGeometry>
        </mxCell>
        <mxCell id="cLjiAWQgn1-5IM3SHc4H-1" value="&lt;span style=&quot;font-family: &amp;#34;helvetica&amp;#34; ; font-size: 10.5pt&quot;&gt;管控指令处理&lt;br&gt;&lt;/span&gt;&lt;span style=&quot;font-family: &amp;#34;times new roman&amp;#34; ; font-size: 10.5pt&quot;&gt;cmg-command-proc&lt;/span&gt;" style="rounded=1;shadow=1;glass=0;sketch=0;horizontal=1;verticalAlign=top;whiteSpace=wrap;labelBackgroundColor=none;html=1;fillColor=#ffff88;strokeColor=#36393d;align=center;" parent="hdogqXHSBpEaAjrL4_Qm-1" vertex="1">
          <mxGeometry x="513.5" y="360" width="120" height="50" as="geometry" />
        </mxCell>
        <mxCell id="fuknoj8fPmJn_HlXlpeP-2" value="" style="aspect=fixed;html=1;points=[];align=center;image;fontSize=12;image=img/lib/mscae/Cache_Redis_Product.svg;rounded=1;shadow=1;glass=0;pointerEvents=0;fillColor=none;gradientColor=none;" parent="hdogqXHSBpEaAjrL4_Qm-1" vertex="1">
          <mxGeometry x="205" y="770" width="50" height="42" as="geometry" />
        </mxCell>
        <mxCell id="fuknoj8fPmJn_HlXlpeP-3" value="服务管控平台" style="whiteSpace=wrap;html=1;aspect=fixed;rounded=1;shadow=1;glass=0;sketch=0;fillColor=#eeeeee;strokeColor=#36393d;" parent="hdogqXHSBpEaAjrL4_Qm-1" vertex="1">
          <mxGeometry x="609" y="200" width="80" height="80" as="geometry" />
        </mxCell>
        <mxCell id="fuknoj8fPmJn_HlXlpeP-4" value="" style="edgeStyle=none;curved=1;sketch=0;orthogonalLoop=1;jettySize=auto;html=1;startArrow=none;startFill=0;" parent="hdogqXHSBpEaAjrL4_Qm-1" source="fuknoj8fPmJn_HlXlpeP-5" target="fuknoj8fPmJn_HlXlpeP-3" edge="1">
          <mxGeometry relative="1" as="geometry" />
        </mxCell>
        <mxCell id="fuknoj8fPmJn_HlXlpeP-5" value="" style="shape=actor;whiteSpace=wrap;html=1;rounded=1;shadow=1;glass=0;sketch=0;" parent="hdogqXHSBpEaAjrL4_Qm-1" vertex="1">
          <mxGeometry x="633.5" y="120" width="31" height="40" as="geometry" />
        </mxCell>
        <mxCell id="58FKScHTOD0fjgMbz1a8-1" value="" style="rounded=1;sketch=0;orthogonalLoop=1;jettySize=auto;html=1;startArrow=classicThin;startFill=1;dashed=1;exitX=1.025;exitY=0.75;exitDx=0;exitDy=0;exitPerimeter=0;entryX=0;entryY=0.548;entryDx=0;entryDy=0;entryPerimeter=0;elbow=vertical;" parent="hdogqXHSBpEaAjrL4_Qm-1" source="58FKScHTOD0fjgMbz1a8-2" target="fuknoj8fPmJn_HlXlpeP-2" edge="1">
          <mxGeometry relative="1" as="geometry">
            <mxPoint x="-170" y="420" as="sourcePoint" />
            <mxPoint x="171" y="650" as="targetPoint" />
          </mxGeometry>
        </mxCell>
        <mxCell id="ZomJhwY5Qn4O2pSg4ZhM-11" value="&lt;span style=&quot;color: rgb(20 , 20 , 20) ; font-family: &amp;#34;helvetica&amp;#34; ; font-size: 11px ; font-style: normal ; font-weight: 400 ; letter-spacing: normal ; text-align: center ; text-indent: 0px ; text-transform: none ; word-spacing: 0px ; background-color: rgb(255 , 255 , 255) ; display: inline ; float: none&quot;&gt;全量同步，&lt;/span&gt;&lt;span style=&quot;font-family: &amp;#34;helvetica&amp;#34;&quot;&gt;订阅通知更新通知&lt;/span&gt;" style="edgeLabel;html=1;align=center;verticalAlign=middle;resizable=0;points=[];fontColor=#141414;" parent="58FKScHTOD0fjgMbz1a8-1" vertex="1" connectable="0">
          <mxGeometry x="0.4982" y="-1" relative="1" as="geometry">
            <mxPoint x="-154" y="-194" as="offset" />
          </mxGeometry>
        </mxCell>
        <mxCell id="ZomJhwY5Qn4O2pSg4ZhM-14" value="&lt;p class=&quot;MsoNormal&quot;&gt;&lt;span style=&quot;font-family: &amp;#34;times new roman&amp;#34; ; font-size: 10.5000pt&quot;&gt;&lt;font face=&quot;宋体&quot;&gt;全局流控&lt;/font&gt;&lt;/span&gt;&lt;/p&gt;&lt;p class=&quot;MsoNormal&quot;&gt;&lt;span style=&quot;font-size: 10.5000pt&quot;&gt;&lt;font face=&quot;Times New Roman&quot;&gt;amg-rate&lt;/font&gt;&lt;/span&gt;&lt;span style=&quot;font-family: &amp;#34;times new roman&amp;#34; ; font-size: 10.5000pt&quot;&gt;limit-control&lt;/span&gt;&lt;/p&gt;" style="rounded=1;whiteSpace=wrap;html=1;sketch=0;shadow=1;fillColor=#ffff88;strokeColor=#36393d;" parent="hdogqXHSBpEaAjrL4_Qm-1" vertex="1">
          <mxGeometry x="180" y="970" width="140" height="50" as="geometry" />
        </mxCell>
        <mxCell id="aicW-fnA6qDHuhY_AQFV-7" value="" style="edgeStyle=none;sketch=0;orthogonalLoop=1;jettySize=auto;html=1;fontColor=#141414;startArrow=none;startFill=0;endArrow=classic;endFill=1;strokeColor=#000000;" parent="hdogqXHSBpEaAjrL4_Qm-1" source="fqj1xfR9sEQ374SJdePA-3" target="fqj1xfR9sEQ374SJdePA-7" edge="1">
          <mxGeometry relative="1" as="geometry">
            <mxPoint x="-70" y="670" as="targetPoint" />
          </mxGeometry>
        </mxCell>
        <mxCell id="fqj1xfR9sEQ374SJdePA-3" value="&lt;p class=&quot;MsoNormal&quot;&gt;&lt;span style=&quot;font-size: 10.5pt&quot;&gt;网关&lt;/span&gt;&lt;span style=&quot;font-family: &amp;#34;times new roman&amp;#34; ; font-size: 10.5pt&quot;&gt;&lt;font face=&quot;宋体&quot;&gt;日志汇聚&lt;/font&gt;&lt;/span&gt;&lt;/p&gt;&lt;p class=&quot;MsoNormal&quot;&gt;&lt;span style=&quot;font-family: &amp;#34;times new roman&amp;#34; ; font-size: 10.5000pt&quot;&gt;log-collect-cmg&lt;/span&gt;&lt;/p&gt;" style="rounded=1;shadow=1;glass=0;sketch=0;horizontal=1;verticalAlign=middle;whiteSpace=wrap;labelBackgroundColor=none;html=1;fillColor=#ffff88;strokeColor=#36393d;" parent="hdogqXHSBpEaAjrL4_Qm-1" vertex="1">
          <mxGeometry x="-150" y="600" width="120" height="50" as="geometry" />
        </mxCell>
        <mxCell id="fqj1xfR9sEQ374SJdePA-8" value="" style="edgeStyle=none;sketch=0;orthogonalLoop=1;jettySize=auto;html=1;fontColor=#141414;startArrow=none;startFill=0;strokeColor=#141414;" parent="hdogqXHSBpEaAjrL4_Qm-1" source="fqj1xfR9sEQ374SJdePA-4" target="fqj1xfR9sEQ374SJdePA-7" edge="1">
          <mxGeometry relative="1" as="geometry" />
        </mxCell>
        <mxCell id="fqj1xfR9sEQ374SJdePA-4" value="&lt;p class=&quot;MsoNormal&quot;&gt;&lt;span style=&quot;font-size: 10.5pt&quot;&gt;上下游&lt;/span&gt;&lt;span style=&quot;font-family: &amp;#34;times new roman&amp;#34; ; font-size: 10.5pt&quot;&gt;&lt;font face=&quot;宋体&quot;&gt;日志汇聚&lt;/font&gt;&lt;/span&gt;&lt;/p&gt;&lt;p class=&quot;MsoNormal&quot;&gt;&lt;span style=&quot;font-family: &amp;#34;times new roman&amp;#34; ; font-size: 10.5000pt&quot;&gt;log-collect-app&lt;/span&gt;&lt;/p&gt;" style="rounded=1;shadow=1;glass=0;sketch=0;horizontal=1;verticalAlign=middle;whiteSpace=wrap;labelBackgroundColor=none;html=1;fillColor=#ffff88;strokeColor=#36393d;" parent="hdogqXHSBpEaAjrL4_Qm-1" vertex="1">
          <mxGeometry x="-110" y="870" width="120" height="50" as="geometry" />
        </mxCell>
        <mxCell id="aicW-fnA6qDHuhY_AQFV-10" value="" style="edgeStyle=none;sketch=0;orthogonalLoop=1;jettySize=auto;html=1;fontColor=#141414;startArrow=none;startFill=0;endArrow=classic;endFill=1;strokeColor=#000000;" parent="hdogqXHSBpEaAjrL4_Qm-1" source="fqj1xfR9sEQ374SJdePA-5" target="aicW-fnA6qDHuhY_AQFV-8" edge="1">
          <mxGeometry relative="1" as="geometry" />
        </mxCell>
        <mxCell id="fqj1xfR9sEQ374SJdePA-5" value="&lt;p class=&quot;MsoNormal&quot;&gt;&lt;span style=&quot;font-size: 10.5000pt&quot;&gt;日志&lt;/span&gt;&lt;span style=&quot;font-family: &amp;#34;times new roman&amp;#34; ; font-size: 10.5000pt&quot;&gt;&lt;font face=&quot;宋体&quot;&gt;上报&lt;/font&gt;&lt;/span&gt;&lt;/p&gt;&lt;p class=&quot;MsoNormal&quot;&gt;&lt;span style=&quot;font-family: &amp;#34;times new roman&amp;#34; ; font-size: 10.5000pt&quot;&gt;log-send-cmg&lt;/span&gt;&lt;/p&gt;" style="rounded=1;shadow=1;glass=0;sketch=0;horizontal=1;verticalAlign=middle;whiteSpace=wrap;labelBackgroundColor=none;html=1;fillColor=#ffff88;strokeColor=#36393d;" parent="hdogqXHSBpEaAjrL4_Qm-1" vertex="1">
          <mxGeometry x="205" y="860" width="110" height="50" as="geometry" />
        </mxCell>
        <mxCell id="aicW-fnA6qDHuhY_AQFV-9" value="&lt;b&gt;&lt;font style=&quot;font-size: 18px&quot;&gt;?&lt;/font&gt;&lt;/b&gt;" style="sketch=0;orthogonalLoop=1;jettySize=auto;html=1;startArrow=none;startFill=0;endArrow=classic;endFill=1;strokeColor=#000000;fontColor=#FF3333;entryX=-0.009;entryY=0.62;entryDx=0;entryDy=0;entryPerimeter=0;" parent="hdogqXHSBpEaAjrL4_Qm-1" target="fqj1xfR9sEQ374SJdePA-5" edge="1">
          <mxGeometry relative="1" as="geometry">
            <mxPoint x="145" y="892.2222222222222" as="sourcePoint" />
            <mxPoint x="205" y="900" as="targetPoint" />
          </mxGeometry>
        </mxCell>
        <mxCell id="fqj1xfR9sEQ374SJdePA-7" value="&lt;b&gt;ELK&lt;/b&gt;" style="outlineConnect=0;dashed=0;verticalLabelPosition=bottom;verticalAlign=top;align=center;html=1;shape=mxgraph.aws3.elasticsearch_service;fillColor=#F58534;gradientColor=none;rounded=1;shadow=1;glass=0;pointerEvents=0;fontColor=#141414;" parent="hdogqXHSBpEaAjrL4_Qm-1" vertex="1">
          <mxGeometry x="95" y="875" width="50" height="40" as="geometry" />
        </mxCell>
        <mxCell id="aicW-fnA6qDHuhY_AQFV-3" value="&lt;b&gt;省内KAFKA&lt;/b&gt;" style="shape=document;whiteSpace=wrap;html=1;boundedLbl=1;rounded=1;shadow=1;glass=0;pointerEvents=0;fontColor=#141414;fillColor=#FF99CC;gradientColor=none;align=center;verticalAlign=top;" parent="hdogqXHSBpEaAjrL4_Qm-1" vertex="1">
          <mxGeometry x="-270" y="820" width="70" height="80" as="geometry" />
        </mxCell>
        <mxCell id="aicW-fnA6qDHuhY_AQFV-5" value="" style="edgeStyle=none;curved=1;sketch=0;orthogonalLoop=1;jettySize=auto;html=1;startArrow=none;startFill=0;exitX=0.875;exitY=1;exitDx=0;exitDy=0;exitPerimeter=0;dashed=1;" parent="hdogqXHSBpEaAjrL4_Qm-1" source="58FKScHTOD0fjgMbz1a8-2" target="fqj1xfR9sEQ374SJdePA-3" edge="1">
          <mxGeometry relative="1" as="geometry">
            <mxPoint x="-230" y="445" as="sourcePoint" />
            <mxPoint x="-75" y="540" as="targetPoint" />
          </mxGeometry>
        </mxCell>
        <mxCell id="aicW-fnA6qDHuhY_AQFV-8" value="&lt;b&gt;CMG KAFKA&lt;/b&gt;" style="shape=document;whiteSpace=wrap;html=1;boundedLbl=1;rounded=1;shadow=1;glass=0;pointerEvents=0;fontColor=#141414;fillColor=#FF99CC;gradientColor=none;align=center;verticalAlign=top;" parent="hdogqXHSBpEaAjrL4_Qm-1" vertex="1">
          <mxGeometry x="355" y="845" width="70" height="80" as="geometry" />
        </mxCell>
        <mxCell id="Mm-TyVejt9eaW4gIl97c-1" value="" style="rounded=0;orthogonalLoop=1;jettySize=auto;html=1;fontColor=#000000;endArrow=classicThin;endFill=1;entryX=-0.017;entryY=0.763;entryDx=0;entryDy=0;entryPerimeter=0;dashed=1;fillColor=#f8cecc;strokeColor=#b85450;" parent="hdogqXHSBpEaAjrL4_Qm-1" source="Mm-TyVejt9eaW4gIl97c-0" target="84nE5ot_cG_BJnyZ2Ct3-0" edge="1">
          <mxGeometry relative="1" as="geometry" />
        </mxCell>
        <mxCell id="3xuIzsQuonJBNvC21Xvo-0" value="取全量数据" style="edgeLabel;html=1;align=center;verticalAlign=middle;resizable=0;points=[];" parent="Mm-TyVejt9eaW4gIl97c-1" vertex="1" connectable="0">
          <mxGeometry x="-0.204" y="-3" relative="1" as="geometry">
            <mxPoint as="offset" />
          </mxGeometry>
        </mxCell>
        <mxCell id="Mm-TyVejt9eaW4gIl97c-2" value="" style="edgeStyle=none;rounded=0;orthogonalLoop=1;jettySize=auto;html=1;fontColor=#000000;endArrow=classicThin;endFill=1;dashed=1;fillColor=#f8cecc;strokeColor=#b85450;" parent="hdogqXHSBpEaAjrL4_Qm-1" source="Mm-TyVejt9eaW4gIl97c-0" target="fuknoj8fPmJn_HlXlpeP-2" edge="1">
          <mxGeometry relative="1" as="geometry" />
        </mxCell>
        <mxCell id="3xuIzsQuonJBNvC21Xvo-4" value="同步，发布通知" style="edgeLabel;html=1;align=center;verticalAlign=middle;resizable=0;points=[];" parent="Mm-TyVejt9eaW4gIl97c-2" vertex="1" connectable="0">
          <mxGeometry x="-0.3" y="-3" relative="1" as="geometry">
            <mxPoint as="offset" />
          </mxGeometry>
        </mxCell>
        <mxCell id="Mm-TyVejt9eaW4gIl97c-0" value="&lt;p class=&quot;MsoNormal&quot;&gt;&lt;span style=&quot;font-size: 10.5pt&quot;&gt;缓存刷新&lt;/span&gt;&lt;br&gt;&lt;/p&gt;&lt;span style=&quot;font-family: &amp;#34;times new roman&amp;#34; ; font-size: 14px&quot;&gt;db-cache-refresh&lt;/span&gt;" style="rounded=1;shadow=1;glass=0;sketch=0;horizontal=1;verticalAlign=middle;whiteSpace=wrap;labelBackgroundColor=none;html=1;fillColor=#0050ef;strokeColor=#001DBC;fontColor=#ffffff;" parent="hdogqXHSBpEaAjrL4_Qm-1" vertex="1">
          <mxGeometry x="170" y="590" width="120" height="70" as="geometry" />
        </mxCell>
      </root>
    </mxGraphModel>
  </diagram>
  <diagram id="H5ks0xH23TNfroaOrBWy" name="微服务拆分">
    <mxGraphModel dx="1108" dy="1172" grid="1" gridSize="10" guides="1" tooltips="1" connect="1" arrows="1" fold="1" page="1" pageScale="1" pageWidth="980" pageHeight="690" math="0" shadow="0">
      <root>
        <mxCell id="OC57HQLg-QQ5nuB7Cv97-0" />
        <mxCell id="OC57HQLg-QQ5nuB7Cv97-1" parent="OC57HQLg-QQ5nuB7Cv97-0" />
        <mxCell id="4jJnBZCPFhitQu8RjMwX-7" value="&lt;p class=&quot;MsoNormal&quot;&gt;&lt;b&gt;&lt;span style=&quot;font-family: &amp;#34;times new roman&amp;#34; ; font-size: 10.5000pt&quot;&gt;&lt;font face=&quot;宋体&quot;&gt;能力治理&lt;/font&gt;&lt;/span&gt;&lt;span style=&quot;font-size: 10.5000pt&quot;&gt;类&lt;/span&gt;&lt;span style=&quot;font-family: &amp;#34;times new roman&amp;#34; ; font-size: 10.5000pt&quot;&gt;&lt;font face=&quot;宋体&quot;&gt;微服务&lt;/font&gt;&lt;/span&gt;&lt;/b&gt;&lt;/p&gt;" style="rounded=0;whiteSpace=wrap;html=1;shadow=1;glass=0;pointerEvents=0;fillColor=#cce5ff;verticalAlign=top;strokeColor=#36393d;" parent="OC57HQLg-QQ5nuB7Cv97-1" vertex="1">
          <mxGeometry x="40" y="250" width="490" height="150" as="geometry" />
        </mxCell>
        <mxCell id="4jJnBZCPFhitQu8RjMwX-3" value="&lt;p class=&quot;MsoNormal&quot;&gt;&lt;span style=&quot;font-family: &amp;#34;times new roman&amp;#34; ; font-size: 10.5000pt&quot;&gt;&lt;font face=&quot;宋体&quot;&gt;&lt;b&gt;流量处理类微服务&lt;/b&gt;&lt;/font&gt;&lt;/span&gt;&lt;/p&gt;" style="rounded=0;whiteSpace=wrap;html=1;shadow=1;glass=0;pointerEvents=0;fillColor=#cce5ff;verticalAlign=top;strokeColor=#36393d;" parent="OC57HQLg-QQ5nuB7Cv97-1" vertex="1">
          <mxGeometry x="30" width="490" height="230" as="geometry" />
        </mxCell>
        <mxCell id="4jJnBZCPFhitQu8RjMwX-0" value="&lt;p class=&quot;MsoNormal&quot;&gt;&lt;span style=&quot;font-family: &amp;#34;times new roman&amp;#34; ; font-size: 10.5000pt&quot;&gt;&lt;font face=&quot;宋体&quot;&gt;服务调用网关&lt;/font&gt;&lt;/span&gt;&lt;/p&gt;&lt;p class=&quot;MsoNormal&quot;&gt;&lt;span style=&quot;font-size: 10.5000pt&quot;&gt;&lt;font face=&quot;Times New Roman&quot;&gt;amg-api-gateway&lt;/font&gt;&lt;/span&gt;&lt;/p&gt;" style="rounded=1;shadow=1;glass=0;sketch=0;horizontal=1;verticalAlign=middle;whiteSpace=wrap;labelBackgroundColor=none;html=1;" parent="OC57HQLg-QQ5nuB7Cv97-1" vertex="1">
          <mxGeometry x="70" y="50" width="110" height="80" as="geometry" />
        </mxCell>
        <mxCell id="4jJnBZCPFhitQu8RjMwX-1" value="&lt;p class=&quot;MsoNormal&quot;&gt;&lt;span style=&quot;font-family: &amp;#34;times new roman&amp;#34; ; font-size: 10.5000pt&quot;&gt;&lt;font face=&quot;宋体&quot;&gt;号码归属查询&lt;/font&gt;&lt;/span&gt;&lt;/p&gt;&lt;p class=&quot;MsoNormal&quot;&gt;&lt;span style=&quot;font-family: &amp;#34;times new roman&amp;#34; ; font-size: 10.5000pt&quot;&gt;amg-prov-query&lt;/span&gt;&lt;/p&gt;" style="rounded=1;shadow=1;glass=0;sketch=0;horizontal=1;verticalAlign=middle;whiteSpace=wrap;labelBackgroundColor=none;html=1;" parent="OC57HQLg-QQ5nuB7Cv97-1" vertex="1">
          <mxGeometry x="220" y="50" width="110" height="80" as="geometry" />
        </mxCell>
        <mxCell id="4jJnBZCPFhitQu8RjMwX-2" value="&lt;p class=&quot;MsoNormal&quot;&gt;&lt;span style=&quot;font-size: 10.5pt&quot;&gt;全局流控&lt;/span&gt;&lt;/p&gt;&lt;p class=&quot;MsoNormal&quot;&gt;&lt;span style=&quot;font-size: 10.5000pt&quot;&gt;&lt;font face=&quot;Times New Roman&quot;&gt;amg-rate&lt;/font&gt;&lt;/span&gt;&lt;span style=&quot;font-family: &amp;#34;times new roman&amp;#34; ; font-size: 10.5000pt&quot;&gt;limit-control&lt;/span&gt;&lt;/p&gt;" style="rounded=1;shadow=1;glass=0;sketch=0;horizontal=1;verticalAlign=middle;whiteSpace=wrap;labelBackgroundColor=none;html=1;" parent="OC57HQLg-QQ5nuB7Cv97-1" vertex="1">
          <mxGeometry x="370" y="50" width="130" height="80" as="geometry" />
        </mxCell>
        <mxCell id="4jJnBZCPFhitQu8RjMwX-4" value="&lt;p class=&quot;MsoNormal&quot;&gt;&lt;span style=&quot;font-family: &amp;#34;times new roman&amp;#34; ; font-size: 10.5000pt&quot;&gt;&lt;font face=&quot;宋体&quot;&gt;管理数据处理&lt;/font&gt;&lt;/span&gt;&lt;/p&gt;&lt;p class=&quot;MsoNormal&quot;&gt;&lt;span style=&quot;font-size: 10.5000pt&quot;&gt;&lt;font face=&quot;Times New Roman&quot;&gt;cmg&lt;/font&gt;&lt;/span&gt;&lt;span style=&quot;font-family: &amp;#34;times new roman&amp;#34; ; font-size: 10.5000pt&quot;&gt;-globaldata-proc&lt;/span&gt;&lt;/p&gt;" style="rounded=1;shadow=1;glass=0;sketch=0;horizontal=1;verticalAlign=middle;whiteSpace=wrap;labelBackgroundColor=none;html=1;" parent="OC57HQLg-QQ5nuB7Cv97-1" vertex="1">
          <mxGeometry x="70" y="300" width="120" height="80" as="geometry" />
        </mxCell>
        <mxCell id="4jJnBZCPFhitQu8RjMwX-5" value="&lt;p class=&quot;MsoNormal&quot;&gt;&lt;span style=&quot;font-size: 10.5pt&quot;&gt;管控指令处理&lt;/span&gt;&lt;/p&gt;&lt;p class=&quot;MsoNormal&quot;&gt;&lt;span style=&quot;font-family: &amp;#34;times new roman&amp;#34; ; font-size: 10.5000pt&quot;&gt;cmg-command-proc&lt;/span&gt;&lt;/p&gt;" style="rounded=1;shadow=1;glass=0;sketch=0;horizontal=1;verticalAlign=middle;whiteSpace=wrap;labelBackgroundColor=none;html=1;" parent="OC57HQLg-QQ5nuB7Cv97-1" vertex="1">
          <mxGeometry x="220" y="300" width="120" height="80" as="geometry" />
        </mxCell>
        <mxCell id="4jJnBZCPFhitQu8RjMwX-6" value="&lt;p class=&quot;MsoNormal&quot;&gt;&lt;span style=&quot;font-family: &amp;#34;times new roman&amp;#34; ; font-size: 10.5pt&quot;&gt;&lt;font face=&quot;宋体&quot;&gt;接口&lt;/font&gt;&lt;/span&gt;&lt;span style=&quot;font-size: 10.5pt&quot;&gt;对接&lt;/span&gt;&lt;/p&gt;&lt;p class=&quot;MsoNormal&quot;&gt;&lt;span style=&quot;font-family: &amp;#34;times new roman&amp;#34; ; font-size: 10.5000pt&quot;&gt;cmg-interface-proc&lt;/span&gt;&lt;/p&gt;" style="rounded=1;shadow=1;glass=0;sketch=0;horizontal=1;verticalAlign=middle;whiteSpace=wrap;labelBackgroundColor=none;html=1;" parent="OC57HQLg-QQ5nuB7Cv97-1" vertex="1">
          <mxGeometry x="380" y="300" width="120" height="80" as="geometry" />
        </mxCell>
        <mxCell id="LLhBq4zjOfd1W-s7-cfd-0" value="&lt;p class=&quot;MsoNormal&quot;&gt;&lt;span style=&quot;font-family: &amp;#34;times new roman&amp;#34; ; font-size: 10.5000pt&quot;&gt;&lt;font face=&quot;宋体&quot;&gt;&lt;b&gt;日志汇聚上报类微服务&lt;/b&gt;&lt;/font&gt;&lt;/span&gt;&lt;/p&gt;" style="rounded=0;whiteSpace=wrap;html=1;shadow=1;glass=0;pointerEvents=0;fillColor=#cce5ff;verticalAlign=top;strokeColor=#36393d;" parent="OC57HQLg-QQ5nuB7Cv97-1" vertex="1">
          <mxGeometry x="530" width="490" height="150" as="geometry" />
        </mxCell>
        <mxCell id="LLhBq4zjOfd1W-s7-cfd-1" value="&lt;p class=&quot;MsoNormal&quot;&gt;&lt;span style=&quot;font-size: 10.5pt&quot;&gt;网关&lt;/span&gt;&lt;span style=&quot;font-family: &amp;#34;times new roman&amp;#34; ; font-size: 10.5pt&quot;&gt;&lt;font face=&quot;宋体&quot;&gt;日志汇聚&lt;/font&gt;&lt;/span&gt;&lt;/p&gt;&lt;p class=&quot;MsoNormal&quot;&gt;&lt;span style=&quot;font-family: &amp;#34;times new roman&amp;#34; ; font-size: 10.5000pt&quot;&gt;log-collect-cmg&lt;/span&gt;&lt;/p&gt;" style="rounded=1;shadow=1;glass=0;sketch=0;horizontal=1;verticalAlign=middle;whiteSpace=wrap;labelBackgroundColor=none;html=1;" parent="OC57HQLg-QQ5nuB7Cv97-1" vertex="1">
          <mxGeometry x="560" y="50" width="120" height="80" as="geometry" />
        </mxCell>
        <mxCell id="LLhBq4zjOfd1W-s7-cfd-2" value="&lt;p class=&quot;MsoNormal&quot;&gt;&lt;span style=&quot;font-size: 10.5pt&quot;&gt;上下游&lt;/span&gt;&lt;span style=&quot;font-family: &amp;#34;times new roman&amp;#34; ; font-size: 10.5pt&quot;&gt;&lt;font face=&quot;宋体&quot;&gt;日志汇聚&lt;/font&gt;&lt;/span&gt;&lt;/p&gt;&lt;p class=&quot;MsoNormal&quot;&gt;&lt;span style=&quot;font-family: &amp;#34;times new roman&amp;#34; ; font-size: 10.5000pt&quot;&gt;log-collect-app&lt;/span&gt;&lt;/p&gt;" style="rounded=1;shadow=1;glass=0;sketch=0;horizontal=1;verticalAlign=middle;whiteSpace=wrap;labelBackgroundColor=none;html=1;" parent="OC57HQLg-QQ5nuB7Cv97-1" vertex="1">
          <mxGeometry x="710" y="50" width="120" height="80" as="geometry" />
        </mxCell>
        <mxCell id="LLhBq4zjOfd1W-s7-cfd-3" value="&lt;p class=&quot;MsoNormal&quot;&gt;&lt;span style=&quot;font-size: 10.5pt&quot;&gt;日志&lt;/span&gt;&lt;span style=&quot;font-family: &amp;#34;times new roman&amp;#34; ; font-size: 10.5pt&quot;&gt;&lt;font face=&quot;宋体&quot;&gt;上报&lt;/font&gt;&lt;/span&gt;&lt;/p&gt;&lt;p class=&quot;MsoNormal&quot;&gt;&lt;span style=&quot;font-family: &amp;#34;times new roman&amp;#34; ; font-size: 10.5pt&quot;&gt;log-send-cmg&lt;/span&gt;&lt;br&gt;&lt;/p&gt;" style="rounded=1;shadow=1;glass=0;sketch=0;horizontal=1;verticalAlign=middle;whiteSpace=wrap;labelBackgroundColor=none;html=1;" parent="OC57HQLg-QQ5nuB7Cv97-1" vertex="1">
          <mxGeometry x="870" y="50" width="120" height="80" as="geometry" />
        </mxCell>
        <mxCell id="LLhBq4zjOfd1W-s7-cfd-4" value="&lt;p class=&quot;MsoNormal&quot;&gt;&lt;span style=&quot;font-family: &amp;#34;times new roman&amp;#34; ; font-size: 10.5000pt&quot;&gt;&lt;font face=&quot;宋体&quot;&gt;&lt;b&gt;基础类微服务&lt;/b&gt;&lt;/font&gt;&lt;/span&gt;&lt;/p&gt;" style="rounded=0;whiteSpace=wrap;html=1;shadow=1;glass=0;pointerEvents=0;fillColor=#cce5ff;verticalAlign=top;strokeColor=#36393d;" parent="OC57HQLg-QQ5nuB7Cv97-1" vertex="1">
          <mxGeometry x="530" y="160" width="490" height="240" as="geometry" />
        </mxCell>
        <mxCell id="LLhBq4zjOfd1W-s7-cfd-5" value="&lt;p class=&quot;MsoNormal&quot;&gt;&lt;span style=&quot;font-size: 10.5pt&quot;&gt;容灾切换&lt;/span&gt;&lt;/p&gt;&lt;p class=&quot;MsoNormal&quot;&gt;&lt;span style=&quot;font-family: &amp;#34;times new roman&amp;#34; ; font-size: 10.5000pt&quot;&gt;base-failover-proc&lt;/span&gt;&lt;/p&gt;" style="rounded=1;shadow=1;glass=0;sketch=0;horizontal=1;verticalAlign=middle;whiteSpace=wrap;labelBackgroundColor=none;html=1;" parent="OC57HQLg-QQ5nuB7Cv97-1" vertex="1">
          <mxGeometry x="560" y="210" width="120" height="80" as="geometry" />
        </mxCell>
        <mxCell id="LLhBq4zjOfd1W-s7-cfd-6" value="&lt;p class=&quot;MsoNormal&quot;&gt;&lt;span style=&quot;font-size: 10.5pt&quot;&gt;本地服务注册&lt;/span&gt;&lt;/p&gt;&lt;p class=&quot;MsoNormal&quot;&gt;&lt;span style=&quot;font-family: &amp;#34;times new roman&amp;#34; ; font-size: 10.5000pt&quot;&gt;base-localservice-manage&lt;/span&gt;&lt;/p&gt;" style="rounded=1;shadow=1;glass=0;sketch=0;horizontal=1;verticalAlign=middle;whiteSpace=wrap;labelBackgroundColor=none;html=1;" parent="OC57HQLg-QQ5nuB7Cv97-1" vertex="1">
          <mxGeometry x="710" y="210" width="120" height="80" as="geometry" />
        </mxCell>
        <mxCell id="LLhBq4zjOfd1W-s7-cfd-7" value="&lt;p class=&quot;MsoNormal&quot;&gt;&lt;span style=&quot;font-size: 10.5pt&quot;&gt;监控告警&lt;/span&gt;&lt;/p&gt;&lt;p class=&quot;MsoNormal&quot;&gt;&lt;span style=&quot;font-family: &amp;#34;times new roman&amp;#34; ; font-size: 10.5000pt&quot;&gt;base-monitor-proc&lt;/span&gt;&lt;/p&gt;" style="rounded=1;shadow=1;glass=0;sketch=0;horizontal=1;verticalAlign=middle;whiteSpace=wrap;labelBackgroundColor=none;html=1;" parent="OC57HQLg-QQ5nuB7Cv97-1" vertex="1">
          <mxGeometry x="870" y="210" width="120" height="80" as="geometry" />
        </mxCell>
        <mxCell id="LLhBq4zjOfd1W-s7-cfd-8" value="&lt;p class=&quot;MsoNormal&quot;&gt;&lt;span style=&quot;font-size: 10.5pt&quot;&gt;日志搜索&lt;/span&gt;&lt;/p&gt;&lt;p class=&quot;MsoNormal&quot;&gt;&lt;span style=&quot;font-family: &amp;#34;times new roman&amp;#34; ; font-size: 10.5000pt&quot;&gt;base-log-query&lt;/span&gt;&lt;/p&gt;" style="rounded=1;shadow=1;glass=0;sketch=0;horizontal=1;verticalAlign=middle;whiteSpace=wrap;labelBackgroundColor=none;html=1;" parent="OC57HQLg-QQ5nuB7Cv97-1" vertex="1">
          <mxGeometry x="560" y="300" width="120" height="80" as="geometry" />
        </mxCell>
        <mxCell id="M58M7HaOuuOlmS8-7J4D-0" value="&lt;p class=&quot;MsoNormal&quot;&gt;&lt;span style=&quot;font-size: 10.5pt&quot;&gt;缓存刷新&lt;/span&gt;&lt;br&gt;&lt;/p&gt;&lt;span style=&quot;font-family: &amp;#34;times new roman&amp;#34; ; font-size: 14px&quot;&gt;db-cache-refresh&lt;/span&gt;" style="rounded=1;shadow=1;glass=0;sketch=0;horizontal=1;verticalAlign=middle;whiteSpace=wrap;labelBackgroundColor=none;html=1;fillColor=#0050ef;strokeColor=#001DBC;fontColor=#ffffff;" parent="OC57HQLg-QQ5nuB7Cv97-1" vertex="1">
          <mxGeometry x="220" y="150" width="120" height="70" as="geometry" />
        </mxCell>
        <mxCell id="M58M7HaOuuOlmS8-7J4D-2" value="&lt;p class=&quot;MsoNormal&quot;&gt;&lt;font face=&quot;宋体&quot;&gt;&lt;span style=&quot;font-size: 14px&quot;&gt;规范定义的&lt;/span&gt;&lt;/font&gt;&lt;span style=&quot;font-size: 14px&quot;&gt;微服务&lt;/span&gt;&lt;/p&gt;" style="rounded=1;shadow=1;glass=0;sketch=0;horizontal=1;verticalAlign=middle;whiteSpace=wrap;labelBackgroundColor=none;html=1;" parent="OC57HQLg-QQ5nuB7Cv97-1" vertex="1">
          <mxGeometry x="760" y="-50" width="120" height="40" as="geometry" />
        </mxCell>
        <mxCell id="M58M7HaOuuOlmS8-7J4D-3" value="&lt;p class=&quot;MsoNormal&quot;&gt;&lt;font face=&quot;宋体&quot;&gt;&lt;span style=&quot;font-size: 14px&quot;&gt;非标准微服务&lt;/span&gt;&lt;/font&gt;&lt;/p&gt;" style="rounded=1;shadow=1;glass=0;sketch=0;horizontal=1;verticalAlign=middle;whiteSpace=wrap;labelBackgroundColor=none;html=1;fillColor=#0050ef;strokeColor=#001DBC;fontColor=#ffffff;" parent="OC57HQLg-QQ5nuB7Cv97-1" vertex="1">
          <mxGeometry x="900" y="-50" width="120" height="40" as="geometry" />
        </mxCell>
      </root>
    </mxGraphModel>
  </diagram>
  <diagram id="kGaFwdbBIIWb2LQYKGvZ" name="路由">
    <mxGraphModel dx="1320" dy="516" grid="1" gridSize="10" guides="1" tooltips="1" connect="1" arrows="1" fold="1" page="1" pageScale="1" pageWidth="980" pageHeight="690" math="0" shadow="0">
      <root>
        <mxCell id="QdJT8muC0fyM8iQBunHB-0" />
        <mxCell id="QdJT8muC0fyM8iQBunHB-1" parent="QdJT8muC0fyM8iQBunHB-0" />
        <mxCell id="QdJT8muC0fyM8iQBunHB-2" value="&lt;h3&gt;1:中国移动智慧中台能力治理双平面技术规范总册（省公司反馈修订版）-v1.0&lt;br&gt;&lt;font face=&quot;times new roman&quot;&gt;&lt;span style=&quot;font-size: 14px&quot;&gt;5.4.2.3.路由判断规则&lt;/span&gt;&lt;/font&gt;&lt;br&gt;&lt;/h3&gt;&lt;div&gt;&lt;p class=&quot;MsoNormal&quot;&gt;&lt;span style=&quot;font-family: &amp;#34;times new roman&amp;#34; ; font-size: 10.5000pt&quot;&gt;&lt;font face=&quot;宋体&quot;&gt;普通服务的路由，&lt;/font&gt;&lt;/span&gt;&lt;span style=&quot;font-size: 10.5000pt&quot;&gt;路由判断规则为&lt;/span&gt;&lt;/p&gt;&lt;/div&gt;&lt;h4&gt;&lt;span style=&quot;font-family: &amp;#34;times new roman&amp;#34; ; font-size: 14.0000pt&quot;&gt;&lt;/span&gt;&lt;/h4&gt;" style="text;whiteSpace=wrap;html=1;" parent="QdJT8muC0fyM8iQBunHB-1" vertex="1">
          <mxGeometry x="10" width="540" height="80" as="geometry" />
        </mxCell>
        <mxCell id="QdJT8muC0fyM8iQBunHB-5" value="是" style="edgeStyle=orthogonalEdgeStyle;rounded=0;orthogonalLoop=1;jettySize=auto;html=1;" parent="QdJT8muC0fyM8iQBunHB-1" source="QdJT8muC0fyM8iQBunHB-3" target="QdJT8muC0fyM8iQBunHB-4" edge="1">
          <mxGeometry relative="1" as="geometry" />
        </mxCell>
        <mxCell id="QdJT8muC0fyM8iQBunHB-8" value="否" style="edgeStyle=orthogonalEdgeStyle;rounded=0;orthogonalLoop=1;jettySize=auto;html=1;" parent="QdJT8muC0fyM8iQBunHB-1" source="QdJT8muC0fyM8iQBunHB-3" target="QdJT8muC0fyM8iQBunHB-7" edge="1">
          <mxGeometry relative="1" as="geometry" />
        </mxCell>
        <mxCell id="QdJT8muC0fyM8iQBunHB-3" value="&lt;p class=&quot;MsoNormal&quot; style=&quot;text-indent: 0.0000pt&quot;&gt;&lt;span style=&quot;font-size: 9.0000pt&quot;&gt;&lt;font face=&quot;宋体&quot;&gt;是否是服务归属&lt;/font&gt;&lt;font face=&quot;Times New Roman&quot;&gt;AMG&lt;/font&gt;&lt;/span&gt;&lt;span style=&quot;font-family: &amp;#34;times new roman&amp;#34; ; font-size: 9.0000pt&quot;&gt;&lt;font face=&quot;宋体&quot;&gt;？&lt;/font&gt;&lt;/span&gt;&lt;span style=&quot;font-family: &amp;#34;times new roman&amp;#34; ; font-size: 9.0000pt&quot;&gt;&lt;/span&gt;&lt;/p&gt;" style="strokeWidth=2;html=1;shape=mxgraph.flowchart.decision;whiteSpace=wrap;" parent="QdJT8muC0fyM8iQBunHB-1" vertex="1">
          <mxGeometry x="40" y="120" width="120" height="100" as="geometry" />
        </mxCell>
        <mxCell id="QdJT8muC0fyM8iQBunHB-4" value="&lt;p class=&quot;MsoNormal&quot;&gt;&lt;span style=&quot;font-size: 9.0000pt&quot;&gt;本地服务&lt;/span&gt;&lt;/p&gt;" style="whiteSpace=wrap;html=1;strokeWidth=2;" parent="QdJT8muC0fyM8iQBunHB-1" vertex="1">
          <mxGeometry x="240" y="140" width="120" height="60" as="geometry" />
        </mxCell>
        <mxCell id="QdJT8muC0fyM8iQBunHB-10" value="是" style="edgeStyle=orthogonalEdgeStyle;rounded=0;orthogonalLoop=1;jettySize=auto;html=1;" parent="QdJT8muC0fyM8iQBunHB-1" source="QdJT8muC0fyM8iQBunHB-7" target="QdJT8muC0fyM8iQBunHB-9" edge="1">
          <mxGeometry relative="1" as="geometry" />
        </mxCell>
        <mxCell id="QdJT8muC0fyM8iQBunHB-12" value="否" style="edgeStyle=orthogonalEdgeStyle;rounded=0;orthogonalLoop=1;jettySize=auto;html=1;" parent="QdJT8muC0fyM8iQBunHB-1" source="QdJT8muC0fyM8iQBunHB-7" target="QdJT8muC0fyM8iQBunHB-11" edge="1">
          <mxGeometry relative="1" as="geometry" />
        </mxCell>
        <mxCell id="QdJT8muC0fyM8iQBunHB-7" value="&lt;p class=&quot;MsoNormal&quot;&gt;&lt;span style=&quot;font-family: &amp;#34;times new roman&amp;#34; ; font-size: 9.0000pt&quot;&gt;&lt;font face=&quot;宋体&quot;&gt;是否能直连到服务归属&lt;/font&gt;AMG？&lt;/span&gt;&lt;/p&gt;" style="rhombus;whiteSpace=wrap;html=1;strokeWidth=2;" parent="QdJT8muC0fyM8iQBunHB-1" vertex="1">
          <mxGeometry x="30" y="280" width="140" height="80" as="geometry" />
        </mxCell>
        <mxCell id="QdJT8muC0fyM8iQBunHB-9" value="&lt;p class=&quot;MsoNormal&quot;&gt;&lt;span style=&quot;font-size: 9.0000pt&quot;&gt;&lt;font face=&quot;宋体&quot;&gt;转发给服务的归属&lt;/font&gt;&lt;font face=&quot;Times New Roman&quot;&gt;AMG&lt;/font&gt;&lt;/span&gt;&lt;/p&gt;" style="whiteSpace=wrap;html=1;strokeWidth=2;" parent="QdJT8muC0fyM8iQBunHB-1" vertex="1">
          <mxGeometry x="240" y="290" width="120" height="60" as="geometry" />
        </mxCell>
        <mxCell id="QdJT8muC0fyM8iQBunHB-11" value="&lt;p class=&quot;MsoNormal&quot;&gt;&lt;span style=&quot;font-size: 9.0000pt&quot;&gt;转发给直连的中继节点&lt;/span&gt;&lt;/p&gt;" style="whiteSpace=wrap;html=1;strokeWidth=2;" parent="QdJT8muC0fyM8iQBunHB-1" vertex="1">
          <mxGeometry x="40" y="450" width="120" height="60" as="geometry" />
        </mxCell>
      </root>
    </mxGraphModel>
  </diagram>
  <diagram id="9ZgzMvNIV9MdenUca18i" name="机构，应用">
    <mxGraphModel dx="1108" dy="482" grid="1" gridSize="10" guides="1" tooltips="1" connect="1" arrows="1" fold="1" page="1" pageScale="1" pageWidth="980" pageHeight="690" math="0" shadow="0">
      <root>
        <mxCell id="Xiy6iTxS2phmgfGudgAN-0" />
        <mxCell id="Xiy6iTxS2phmgfGudgAN-1" parent="Xiy6iTxS2phmgfGudgAN-0" />
        <mxCell id="Xiy6iTxS2phmgfGudgAN-3" value="机构：四川移动" style="rounded=1;whiteSpace=wrap;html=1;verticalAlign=top;shadow=1;" parent="Xiy6iTxS2phmgfGudgAN-1" vertex="1">
          <mxGeometry x="40" y="160" width="670" height="190" as="geometry" />
        </mxCell>
        <mxCell id="Xiy6iTxS2phmgfGudgAN-4" value="APP提供者：CRM" style="rounded=0;whiteSpace=wrap;html=1;verticalAlign=top;shadow=1;" parent="Xiy6iTxS2phmgfGudgAN-1" vertex="1">
          <mxGeometry x="140" y="210" width="120" height="70" as="geometry" />
        </mxCell>
        <mxCell id="Xiy6iTxS2phmgfGudgAN-5" value="APP提供者：BOSS" style="rounded=0;whiteSpace=wrap;html=1;verticalAlign=top;shadow=1;" parent="Xiy6iTxS2phmgfGudgAN-1" vertex="1">
          <mxGeometry x="300" y="210" width="110" height="70" as="geometry" />
        </mxCell>
        <mxCell id="Xiy6iTxS2phmgfGudgAN-7" value="" style="edgeStyle=orthogonalEdgeStyle;rounded=0;orthogonalLoop=1;jettySize=auto;html=1;entryX=0.5;entryY=0;entryDx=0;entryDy=0;" parent="Xiy6iTxS2phmgfGudgAN-1" source="Xiy6iTxS2phmgfGudgAN-6" target="Xiy6iTxS2phmgfGudgAN-3" edge="1">
          <mxGeometry relative="1" as="geometry" />
        </mxCell>
        <mxCell id="Xiy6iTxS2phmgfGudgAN-6" value="四川省侧 AMG" style="rounded=1;whiteSpace=wrap;html=1;shadow=1;verticalAlign=middle;" parent="Xiy6iTxS2phmgfGudgAN-1" vertex="1">
          <mxGeometry x="245" y="40" width="260" height="60" as="geometry" />
        </mxCell>
        <mxCell id="b8emiOJJHY0-5V4IV900-0" value="服务" style="rounded=0;whiteSpace=wrap;html=1;shadow=1;sketch=0;fontColor=#EEEEEE;strokeColor=#BAC8D3;fillColor=#09555B;" parent="Xiy6iTxS2phmgfGudgAN-1" vertex="1">
          <mxGeometry x="160" y="250" width="40" height="20" as="geometry" />
        </mxCell>
        <mxCell id="b8emiOJJHY0-5V4IV900-1" value="服务" style="rounded=0;whiteSpace=wrap;html=1;shadow=1;sketch=0;fontColor=#EEEEEE;strokeColor=#BAC8D3;fillColor=#09555B;" parent="Xiy6iTxS2phmgfGudgAN-1" vertex="1">
          <mxGeometry x="210" y="250" width="40" height="20" as="geometry" />
        </mxCell>
        <mxCell id="b8emiOJJHY0-5V4IV900-2" value="服务" style="rounded=0;whiteSpace=wrap;html=1;shadow=1;sketch=0;fontColor=#EEEEEE;strokeColor=#BAC8D3;fillColor=#09555B;" parent="Xiy6iTxS2phmgfGudgAN-1" vertex="1">
          <mxGeometry x="310" y="250" width="40" height="20" as="geometry" />
        </mxCell>
        <mxCell id="b8emiOJJHY0-5V4IV900-3" value="服务" style="rounded=0;whiteSpace=wrap;html=1;shadow=1;sketch=0;fontColor=#EEEEEE;strokeColor=#BAC8D3;fillColor=#09555B;" parent="Xiy6iTxS2phmgfGudgAN-1" vertex="1">
          <mxGeometry x="360" y="250" width="40" height="20" as="geometry" />
        </mxCell>
        <mxCell id="b8emiOJJHY0-5V4IV900-4" value="APP调用者" style="rounded=0;whiteSpace=wrap;html=1;verticalAlign=top;shadow=1;" parent="Xiy6iTxS2phmgfGudgAN-1" vertex="1">
          <mxGeometry x="450" y="210" width="110" height="70" as="geometry" />
        </mxCell>
      </root>
    </mxGraphModel>
  </diagram>
  <diagram id="DUuiSMzpB0MHdLy_sVk0" name="网关运行流程">
    <mxGraphModel dx="2033" dy="1172" grid="1" gridSize="10" guides="1" tooltips="1" connect="1" arrows="1" fold="1" page="1" pageScale="1" pageWidth="980" pageHeight="690" math="0" shadow="0">
      <root>
        <mxCell id="eoFvazOYoVXe5MVRfVET-0" />
        <mxCell id="eoFvazOYoVXe5MVRfVET-1" parent="eoFvazOYoVXe5MVRfVET-0" />
        <mxCell id="DfNfZrt7AIXCKAgTbiaM-2" value="" style="edgeStyle=orthogonalEdgeStyle;rounded=0;orthogonalLoop=1;jettySize=auto;html=1;strokeColor=#0B4D6A;" parent="eoFvazOYoVXe5MVRfVET-1" source="DfNfZrt7AIXCKAgTbiaM-0" target="DfNfZrt7AIXCKAgTbiaM-1" edge="1">
          <mxGeometry relative="1" as="geometry" />
        </mxCell>
        <mxCell id="DfNfZrt7AIXCKAgTbiaM-0" value="&lt;font color=&quot;#ffffff&quot;&gt;开始&lt;/font&gt;" style="rounded=1;whiteSpace=wrap;html=1;shadow=1;strokeColor=#BAC8D3;fontColor=#EEEEEE;fillColor=#000000;" parent="eoFvazOYoVXe5MVRfVET-1" vertex="1">
          <mxGeometry x="-940" y="-560" width="120" height="40" as="geometry" />
        </mxCell>
        <mxCell id="DfNfZrt7AIXCKAgTbiaM-4" value="" style="edgeStyle=orthogonalEdgeStyle;rounded=0;orthogonalLoop=1;jettySize=auto;html=1;strokeColor=#0B4D6A;" parent="eoFvazOYoVXe5MVRfVET-1" source="DfNfZrt7AIXCKAgTbiaM-1" target="DfNfZrt7AIXCKAgTbiaM-3" edge="1">
          <mxGeometry relative="1" as="geometry" />
        </mxCell>
        <mxCell id="DfNfZrt7AIXCKAgTbiaM-1" value="收到服务调用消息" style="rounded=0;whiteSpace=wrap;html=1;shadow=1;fillColor=#09555B;strokeColor=#BAC8D3;fontColor=#EEEEEE;" parent="eoFvazOYoVXe5MVRfVET-1" vertex="1">
          <mxGeometry x="-935" y="-480" width="110" height="40" as="geometry" />
        </mxCell>
        <mxCell id="DfNfZrt7AIXCKAgTbiaM-6" value="" style="edgeStyle=orthogonalEdgeStyle;rounded=0;orthogonalLoop=1;jettySize=auto;html=1;strokeColor=#0B4D6A;" parent="eoFvazOYoVXe5MVRfVET-1" source="DfNfZrt7AIXCKAgTbiaM-3" target="DfNfZrt7AIXCKAgTbiaM-5" edge="1">
          <mxGeometry relative="1" as="geometry" />
        </mxCell>
        <mxCell id="DfNfZrt7AIXCKAgTbiaM-3" value="IP黑白名单校验" style="rounded=0;whiteSpace=wrap;html=1;shadow=1;fillColor=#d80073;strokeColor=#A50040;fontColor=#ffffff;" parent="eoFvazOYoVXe5MVRfVET-1" vertex="1">
          <mxGeometry x="-935" y="-405" width="110" height="40" as="geometry" />
        </mxCell>
        <mxCell id="DfNfZrt7AIXCKAgTbiaM-8" value="" style="edgeStyle=orthogonalEdgeStyle;rounded=0;orthogonalLoop=1;jettySize=auto;html=1;strokeColor=#0B4D6A;" parent="eoFvazOYoVXe5MVRfVET-1" source="DfNfZrt7AIXCKAgTbiaM-5" target="DfNfZrt7AIXCKAgTbiaM-7" edge="1">
          <mxGeometry relative="1" as="geometry" />
        </mxCell>
        <mxCell id="DfNfZrt7AIXCKAgTbiaM-5" value="本地入口流量校验&lt;br&gt;？" style="rounded=0;whiteSpace=wrap;html=1;shadow=1;strokeColor=#A50040;fontColor=#ffffff;fillColor=#d80073;" parent="eoFvazOYoVXe5MVRfVET-1" vertex="1">
          <mxGeometry x="-935" y="-335" width="110" height="40" as="geometry" />
        </mxCell>
        <mxCell id="DfNfZrt7AIXCKAgTbiaM-10" value="" style="edgeStyle=orthogonalEdgeStyle;rounded=0;orthogonalLoop=1;jettySize=auto;html=1;strokeColor=#0B4D6A;" parent="eoFvazOYoVXe5MVRfVET-1" source="DfNfZrt7AIXCKAgTbiaM-7" target="DfNfZrt7AIXCKAgTbiaM-9" edge="1">
          <mxGeometry relative="1" as="geometry" />
        </mxCell>
        <mxCell id="DfNfZrt7AIXCKAgTbiaM-7" value="本地SLA服&lt;br&gt;务等级控制" style="rounded=0;whiteSpace=wrap;html=1;shadow=1;fillColor=#09555B;strokeColor=#BAC8D3;fontColor=#EEEEEE;" parent="eoFvazOYoVXe5MVRfVET-1" vertex="1">
          <mxGeometry x="-935" y="-265" width="110" height="40" as="geometry" />
        </mxCell>
        <mxCell id="DfNfZrt7AIXCKAgTbiaM-12" value="" style="edgeStyle=orthogonalEdgeStyle;rounded=0;orthogonalLoop=1;jettySize=auto;html=1;strokeColor=#0B4D6A;" parent="eoFvazOYoVXe5MVRfVET-1" source="DfNfZrt7AIXCKAgTbiaM-9" target="DfNfZrt7AIXCKAgTbiaM-11" edge="1">
          <mxGeometry relative="1" as="geometry" />
        </mxCell>
        <mxCell id="DfNfZrt7AIXCKAgTbiaM-9" value="计算签名&lt;br&gt;身份认证" style="rounded=0;whiteSpace=wrap;html=1;shadow=1;fillColor=#09555B;strokeColor=#BAC8D3;fontColor=#EEEEEE;" parent="eoFvazOYoVXe5MVRfVET-1" vertex="1">
          <mxGeometry x="-935" y="-195" width="110" height="40" as="geometry" />
        </mxCell>
        <mxCell id="DfNfZrt7AIXCKAgTbiaM-20" value="" style="edgeStyle=orthogonalEdgeStyle;rounded=0;orthogonalLoop=1;jettySize=auto;html=1;entryX=0;entryY=0.5;entryDx=0;entryDy=0;strokeColor=#0B4D6A;" parent="eoFvazOYoVXe5MVRfVET-1" source="DfNfZrt7AIXCKAgTbiaM-11" target="DfNfZrt7AIXCKAgTbiaM-14" edge="1">
          <mxGeometry relative="1" as="geometry">
            <mxPoint x="-770" y="-395" as="targetPoint" />
          </mxGeometry>
        </mxCell>
        <mxCell id="DfNfZrt7AIXCKAgTbiaM-11" value="服务调用&lt;br&gt;权限检查" style="rounded=0;whiteSpace=wrap;html=1;shadow=1;fillColor=#09555B;strokeColor=#BAC8D3;fontColor=#EEEEEE;" parent="eoFvazOYoVXe5MVRfVET-1" vertex="1">
          <mxGeometry x="-935" y="-125" width="110" height="40" as="geometry" />
        </mxCell>
        <mxCell id="DfNfZrt7AIXCKAgTbiaM-16" value="是" style="edgeStyle=orthogonalEdgeStyle;rounded=0;orthogonalLoop=1;jettySize=auto;html=1;strokeColor=#0B4D6A;" parent="eoFvazOYoVXe5MVRfVET-1" source="DfNfZrt7AIXCKAgTbiaM-14" target="DfNfZrt7AIXCKAgTbiaM-15" edge="1">
          <mxGeometry relative="1" as="geometry" />
        </mxCell>
        <mxCell id="DfNfZrt7AIXCKAgTbiaM-51" value="否" style="edgeStyle=orthogonalEdgeStyle;curved=0;rounded=1;sketch=0;orthogonalLoop=1;jettySize=auto;html=1;strokeColor=#0B4D6A;" parent="eoFvazOYoVXe5MVRfVET-1" source="DfNfZrt7AIXCKAgTbiaM-14" target="DfNfZrt7AIXCKAgTbiaM-21" edge="1">
          <mxGeometry relative="1" as="geometry" />
        </mxCell>
        <mxCell id="DfNfZrt7AIXCKAgTbiaM-14" value="是应用归属AMG？" style="rhombus;whiteSpace=wrap;html=1;shadow=1;fillColor=#09555B;strokeColor=#BAC8D3;fontColor=#EEEEEE;" parent="eoFvazOYoVXe5MVRfVET-1" vertex="1">
          <mxGeometry x="-750" y="-509" width="100" height="80" as="geometry" />
        </mxCell>
        <mxCell id="DfNfZrt7AIXCKAgTbiaM-18" value="" style="edgeStyle=orthogonalEdgeStyle;rounded=0;orthogonalLoop=1;jettySize=auto;html=1;strokeColor=#0B4D6A;" parent="eoFvazOYoVXe5MVRfVET-1" source="DfNfZrt7AIXCKAgTbiaM-15" target="DfNfZrt7AIXCKAgTbiaM-17" edge="1">
          <mxGeometry relative="1" as="geometry" />
        </mxCell>
        <mxCell id="DfNfZrt7AIXCKAgTbiaM-15" value="应用访问服&lt;br&gt;务等级控制" style="rounded=0;whiteSpace=wrap;html=1;shadow=1;fillColor=#09555B;strokeColor=#BAC8D3;fontColor=#EEEEEE;" parent="eoFvazOYoVXe5MVRfVET-1" vertex="1">
          <mxGeometry x="-755" y="-385" width="110" height="35" as="geometry" />
        </mxCell>
        <mxCell id="DfNfZrt7AIXCKAgTbiaM-53" value="" style="edgeStyle=orthogonalEdgeStyle;curved=0;rounded=1;sketch=0;orthogonalLoop=1;jettySize=auto;html=1;strokeColor=#0B4D6A;entryX=0;entryY=0.5;entryDx=0;entryDy=0;" parent="eoFvazOYoVXe5MVRfVET-1" source="DfNfZrt7AIXCKAgTbiaM-17" target="DfNfZrt7AIXCKAgTbiaM-21" edge="1">
          <mxGeometry relative="1" as="geometry">
            <mxPoint x="-580" y="-470" as="targetPoint" />
            <Array as="points">
              <mxPoint x="-590" y="-295" />
              <mxPoint x="-590" y="-470" />
            </Array>
          </mxGeometry>
        </mxCell>
        <mxCell id="DfNfZrt7AIXCKAgTbiaM-17" value="应用访流&lt;br&gt;量控制" style="rounded=0;whiteSpace=wrap;html=1;shadow=1;fillColor=#d80073;strokeColor=#A50040;fontColor=#ffffff;" parent="eoFvazOYoVXe5MVRfVET-1" vertex="1">
          <mxGeometry x="-755" y="-312.5" width="110" height="35" as="geometry" />
        </mxCell>
        <mxCell id="DfNfZrt7AIXCKAgTbiaM-33" value="是" style="edgeStyle=orthogonalEdgeStyle;rounded=0;orthogonalLoop=1;jettySize=auto;html=1;strokeColor=#0B4D6A;" parent="eoFvazOYoVXe5MVRfVET-1" source="DfNfZrt7AIXCKAgTbiaM-21" target="DfNfZrt7AIXCKAgTbiaM-24" edge="1">
          <mxGeometry relative="1" as="geometry" />
        </mxCell>
        <mxCell id="DfNfZrt7AIXCKAgTbiaM-47" value="否" style="edgeStyle=orthogonalEdgeStyle;rounded=0;orthogonalLoop=1;jettySize=auto;html=1;entryX=0.5;entryY=0;entryDx=0;entryDy=0;strokeColor=#0B4D6A;" parent="eoFvazOYoVXe5MVRfVET-1" source="DfNfZrt7AIXCKAgTbiaM-21" target="DfNfZrt7AIXCKAgTbiaM-42" edge="1">
          <mxGeometry relative="1" as="geometry">
            <mxPoint x="-400" y="-469" as="targetPoint" />
          </mxGeometry>
        </mxCell>
        <mxCell id="DfNfZrt7AIXCKAgTbiaM-21" value="是服务归属AMG？" style="rhombus;whiteSpace=wrap;html=1;shadow=1;fillColor=#09555B;strokeColor=#BAC8D3;fontColor=#EEEEEE;" parent="eoFvazOYoVXe5MVRfVET-1" vertex="1">
          <mxGeometry x="-570" y="-509" width="100" height="80" as="geometry" />
        </mxCell>
        <mxCell id="DfNfZrt7AIXCKAgTbiaM-28" value="" style="edgeStyle=orthogonalEdgeStyle;rounded=0;orthogonalLoop=1;jettySize=auto;html=1;strokeColor=#0B4D6A;" parent="eoFvazOYoVXe5MVRfVET-1" source="DfNfZrt7AIXCKAgTbiaM-24" target="DfNfZrt7AIXCKAgTbiaM-25" edge="1">
          <mxGeometry relative="1" as="geometry" />
        </mxCell>
        <mxCell id="DfNfZrt7AIXCKAgTbiaM-24" value="查找服务目标地址" style="rounded=0;whiteSpace=wrap;html=1;shadow=1;fillColor=#09555B;strokeColor=#BAC8D3;fontColor=#EEEEEE;" parent="eoFvazOYoVXe5MVRfVET-1" vertex="1">
          <mxGeometry x="-575" y="-385" width="110" height="35" as="geometry" />
        </mxCell>
        <mxCell id="DfNfZrt7AIXCKAgTbiaM-30" value="" style="edgeStyle=orthogonalEdgeStyle;rounded=0;orthogonalLoop=1;jettySize=auto;html=1;strokeColor=#0B4D6A;" parent="eoFvazOYoVXe5MVRfVET-1" source="DfNfZrt7AIXCKAgTbiaM-25" target="DfNfZrt7AIXCKAgTbiaM-26" edge="1">
          <mxGeometry relative="1" as="geometry" />
        </mxCell>
        <mxCell id="DfNfZrt7AIXCKAgTbiaM-25" value="目标服务SLA控制" style="rounded=0;whiteSpace=wrap;html=1;shadow=1;fillColor=#09555B;strokeColor=#BAC8D3;fontColor=#EEEEEE;" parent="eoFvazOYoVXe5MVRfVET-1" vertex="1">
          <mxGeometry x="-575" y="-312.5" width="110" height="35" as="geometry" />
        </mxCell>
        <mxCell id="DfNfZrt7AIXCKAgTbiaM-41" value="" style="edgeStyle=orthogonalEdgeStyle;rounded=0;orthogonalLoop=1;jettySize=auto;html=1;entryX=0;entryY=0.5;entryDx=0;entryDy=0;strokeColor=#0B4D6A;" parent="eoFvazOYoVXe5MVRfVET-1" source="DfNfZrt7AIXCKAgTbiaM-26" target="DfNfZrt7AIXCKAgTbiaM-34" edge="1">
          <mxGeometry relative="1" as="geometry">
            <mxPoint x="-520" y="-130" as="targetPoint" />
          </mxGeometry>
        </mxCell>
        <mxCell id="DfNfZrt7AIXCKAgTbiaM-26" value="目标服务流量控制" style="rounded=0;whiteSpace=wrap;html=1;shadow=1;fillColor=#d80073;strokeColor=#A50040;fontColor=#ffffff;" parent="eoFvazOYoVXe5MVRfVET-1" vertex="1">
          <mxGeometry x="-575" y="-245" width="110" height="35" as="geometry" />
        </mxCell>
        <mxCell id="DfNfZrt7AIXCKAgTbiaM-39" value="" style="edgeStyle=orthogonalEdgeStyle;rounded=0;orthogonalLoop=1;jettySize=auto;html=1;strokeColor=#0B4D6A;" parent="eoFvazOYoVXe5MVRfVET-1" source="DfNfZrt7AIXCKAgTbiaM-34" target="DfNfZrt7AIXCKAgTbiaM-35" edge="1">
          <mxGeometry relative="1" as="geometry" />
        </mxCell>
        <mxCell id="DfNfZrt7AIXCKAgTbiaM-34" value="熔断处理" style="rounded=0;whiteSpace=wrap;html=1;shadow=1;fillColor=#d80073;strokeColor=#A50040;fontColor=#ffffff;" parent="eoFvazOYoVXe5MVRfVET-1" vertex="1">
          <mxGeometry x="-390" y="-385" width="110" height="35" as="geometry" />
        </mxCell>
        <mxCell id="DfNfZrt7AIXCKAgTbiaM-38" value="" style="edgeStyle=orthogonalEdgeStyle;rounded=0;orthogonalLoop=1;jettySize=auto;html=1;strokeColor=#0B4D6A;" parent="eoFvazOYoVXe5MVRfVET-1" source="DfNfZrt7AIXCKAgTbiaM-35" target="DfNfZrt7AIXCKAgTbiaM-36" edge="1">
          <mxGeometry relative="1" as="geometry" />
        </mxCell>
        <mxCell id="DfNfZrt7AIXCKAgTbiaM-35" value="HEADER字段处理" style="rounded=0;whiteSpace=wrap;html=1;shadow=1;fillColor=#09555B;strokeColor=#BAC8D3;fontColor=#EEEEEE;" parent="eoFvazOYoVXe5MVRfVET-1" vertex="1">
          <mxGeometry x="-390" y="-312.5" width="110" height="35" as="geometry" />
        </mxCell>
        <mxCell id="DfNfZrt7AIXCKAgTbiaM-45" value="" style="edgeStyle=orthogonalEdgeStyle;rounded=0;orthogonalLoop=1;jettySize=auto;html=1;strokeColor=#0B4D6A;" parent="eoFvazOYoVXe5MVRfVET-1" source="DfNfZrt7AIXCKAgTbiaM-36" target="DfNfZrt7AIXCKAgTbiaM-44" edge="1">
          <mxGeometry relative="1" as="geometry" />
        </mxCell>
        <mxCell id="DfNfZrt7AIXCKAgTbiaM-36" value="调用目标服务" style="rounded=0;whiteSpace=wrap;html=1;shadow=1;fillColor=#09555B;strokeColor=#BAC8D3;fontColor=#EEEEEE;" parent="eoFvazOYoVXe5MVRfVET-1" vertex="1">
          <mxGeometry x="-390" y="-245" width="110" height="35" as="geometry" />
        </mxCell>
        <mxCell id="DfNfZrt7AIXCKAgTbiaM-57" value="" style="edgeStyle=orthogonalEdgeStyle;curved=0;rounded=1;sketch=0;orthogonalLoop=1;jettySize=auto;html=1;strokeColor=#0B4D6A;" parent="eoFvazOYoVXe5MVRfVET-1" source="DfNfZrt7AIXCKAgTbiaM-42" target="DfNfZrt7AIXCKAgTbiaM-43" edge="1">
          <mxGeometry relative="1" as="geometry" />
        </mxCell>
        <mxCell id="DfNfZrt7AIXCKAgTbiaM-42" value="查找路由表&lt;br&gt;下一AMG" style="rounded=0;whiteSpace=wrap;html=1;shadow=1;fillColor=#09555B;strokeColor=#BAC8D3;fontColor=#EEEEEE;" parent="eoFvazOYoVXe5MVRfVET-1" vertex="1">
          <mxGeometry x="-230" y="-385" width="110" height="35" as="geometry" />
        </mxCell>
        <mxCell id="DfNfZrt7AIXCKAgTbiaM-58" value="" style="edgeStyle=orthogonalEdgeStyle;curved=0;rounded=1;sketch=0;orthogonalLoop=1;jettySize=auto;html=1;strokeColor=#0B4D6A;" parent="eoFvazOYoVXe5MVRfVET-1" source="DfNfZrt7AIXCKAgTbiaM-43" target="DfNfZrt7AIXCKAgTbiaM-44" edge="1">
          <mxGeometry relative="1" as="geometry" />
        </mxCell>
        <mxCell id="DfNfZrt7AIXCKAgTbiaM-43" value="转发服务调用消息" style="rounded=0;whiteSpace=wrap;html=1;shadow=1;fillColor=#09555B;strokeColor=#BAC8D3;fontColor=#EEEEEE;" parent="eoFvazOYoVXe5MVRfVET-1" vertex="1">
          <mxGeometry x="-230" y="-312.5" width="110" height="35" as="geometry" />
        </mxCell>
        <mxCell id="DfNfZrt7AIXCKAgTbiaM-44" value="生成日志" style="rounded=0;whiteSpace=wrap;html=1;shadow=1;fillColor=#09555B;strokeColor=#BAC8D3;fontColor=#EEEEEE;" parent="eoFvazOYoVXe5MVRfVET-1" vertex="1">
          <mxGeometry x="-230" y="-245" width="110" height="35" as="geometry" />
        </mxCell>
        <mxCell id="DfNfZrt7AIXCKAgTbiaM-49" value="operator调用磐基实现" style="rounded=0;whiteSpace=wrap;html=1;shadow=1;fillColor=#d80073;strokeColor=#A50040;fontColor=#ffffff;" parent="eoFvazOYoVXe5MVRfVET-1" vertex="1">
          <mxGeometry x="-290" y="-590" width="145" height="40" as="geometry" />
        </mxCell>
        <mxCell id="fVZXRLluibwA9DK9Azjw-1" value="&lt;h1&gt;流控&lt;/h1&gt;&lt;p&gt;1：入口流量：由调用者应用归属AMG控制，控制调用者入口总流量，服务流量&lt;/p&gt;&lt;p&gt;2：出口流量：由服务提供者归属AMG控制，控制发送给能力提供者的总访问量&lt;/p&gt;&lt;p&gt;3：中间链路AMG非归属AMG，不做限流控制&lt;/p&gt;" style="text;html=1;strokeColor=none;fillColor=none;spacing=5;spacingTop=-20;whiteSpace=wrap;overflow=hidden;rounded=0;" parent="eoFvazOYoVXe5MVRfVET-1" vertex="1">
          <mxGeometry x="-970" y="60" width="890" height="130" as="geometry" />
        </mxCell>
        <mxCell id="jBDmbUpw5HXNpQPZ3mbG-0" value="&lt;h1&gt;降级 SLA&amp;nbsp;&lt;/h1&gt;&lt;p&gt;1：保护下游AMG，由AMG发起流量请求：算出转发的AMG，查询此AMG是否有SLA控制要求，根据请求应用级别和服务级别，现在转发给下游。中间链路AMG 也要参与&lt;/p&gt;&lt;p&gt;2：保护下游提供者服务，有服务提供者发起，限制服务调用&lt;/p&gt;" style="text;html=1;strokeColor=none;fillColor=none;spacing=5;spacingTop=-20;whiteSpace=wrap;overflow=hidden;rounded=0;" parent="eoFvazOYoVXe5MVRfVET-1" vertex="1">
          <mxGeometry x="-955" y="270" width="935" height="110" as="geometry" />
        </mxCell>
        <mxCell id="Guwz7TFWFDyWSLHhGe3I-4" value="" style="edgeStyle=orthogonalEdgeStyle;rounded=0;orthogonalLoop=1;jettySize=auto;html=1;fontColor=#000000;endArrow=classicThin;endFill=1;" parent="eoFvazOYoVXe5MVRfVET-1" source="Guwz7TFWFDyWSLHhGe3I-0" target="Guwz7TFWFDyWSLHhGe3I-3" edge="1">
          <mxGeometry relative="1" as="geometry" />
        </mxCell>
        <mxCell id="Guwz7TFWFDyWSLHhGe3I-8" value="" style="edgeStyle=orthogonalEdgeStyle;rounded=0;orthogonalLoop=1;jettySize=auto;html=1;fontColor=#000000;endArrow=classicThin;endFill=1;" parent="eoFvazOYoVXe5MVRfVET-1" source="Guwz7TFWFDyWSLHhGe3I-0" edge="1">
          <mxGeometry relative="1" as="geometry">
            <mxPoint x="-302.5" y="2.5" as="targetPoint" />
          </mxGeometry>
        </mxCell>
        <mxCell id="Guwz7TFWFDyWSLHhGe3I-10" value="" style="edgeStyle=orthogonalEdgeStyle;rounded=0;orthogonalLoop=1;jettySize=auto;html=1;fontColor=#000000;endArrow=classicThin;endFill=1;" parent="eoFvazOYoVXe5MVRfVET-1" source="Guwz7TFWFDyWSLHhGe3I-0" edge="1">
          <mxGeometry relative="1" as="geometry">
            <mxPoint x="-52.5" y="12.5" as="targetPoint" />
          </mxGeometry>
        </mxCell>
        <mxCell id="Guwz7TFWFDyWSLHhGe3I-0" value="AMG" style="rounded=1;whiteSpace=wrap;html=1;fillColor=#b1ddf0;strokeColor=#10739e;" parent="eoFvazOYoVXe5MVRfVET-1" vertex="1">
          <mxGeometry x="-225" y="-155" width="90" height="45" as="geometry" />
        </mxCell>
        <mxCell id="Guwz7TFWFDyWSLHhGe3I-3" value="服务" style="whiteSpace=wrap;html=1;rounded=1;strokeColor=#10739e;fillColor=#b1ddf0;" parent="eoFvazOYoVXe5MVRfVET-1" vertex="1">
          <mxGeometry x="-227.5" y="3.75" width="95" height="27.5" as="geometry" />
        </mxCell>
        <mxCell id="Guwz7TFWFDyWSLHhGe3I-6" value="中继AMG" style="whiteSpace=wrap;html=1;rounded=1;strokeColor=#10739e;fillColor=#b1ddf0;" parent="eoFvazOYoVXe5MVRfVET-1" vertex="1">
          <mxGeometry x="-102.5" y="3.75" width="95" height="27.5" as="geometry" />
        </mxCell>
        <mxCell id="Guwz7TFWFDyWSLHhGe3I-7" value="直连AMG" style="whiteSpace=wrap;html=1;rounded=1;strokeColor=#10739e;fillColor=#b1ddf0;" parent="eoFvazOYoVXe5MVRfVET-1" vertex="1">
          <mxGeometry x="-342.5" y="3.75" width="95" height="27.5" as="geometry" />
        </mxCell>
      </root>
    </mxGraphModel>
  </diagram>
  <diagram id="uKpQaER9T1sCH8qhUZDr" name="核心数据模型">
    <mxGraphModel dx="1053" dy="482" grid="1" gridSize="10" guides="1" tooltips="1" connect="1" arrows="1" fold="1" page="1" pageScale="1" pageWidth="980" pageHeight="690" math="0" shadow="0">
      <root>
        <mxCell id="2mJwRisrd1SAQ4KJemB8-0" />
        <mxCell id="2mJwRisrd1SAQ4KJemB8-1" parent="2mJwRisrd1SAQ4KJemB8-0" />
        <mxCell id="2mJwRisrd1SAQ4KJemB8-2" value="AMG" style="swimlane;fontStyle=0;childLayout=stackLayout;horizontal=1;startSize=26;horizontalStack=0;resizeParent=1;resizeParentMax=0;resizeLast=0;collapsible=1;marginBottom=0;fillColor=#000000;fontColor=#FFFFFF;" parent="2mJwRisrd1SAQ4KJemB8-1" vertex="1">
          <mxGeometry x="30" y="40" width="120" height="104" as="geometry">
            <mxRectangle x="50" y="100" width="60" height="26" as="alternateBounds" />
          </mxGeometry>
        </mxCell>
        <mxCell id="2mJwRisrd1SAQ4KJemB8-3" value="AMGId" style="text;strokeColor=none;fillColor=none;align=left;verticalAlign=top;spacingLeft=4;spacingRight=4;overflow=hidden;rotatable=0;points=[[0,0.5],[1,0.5]];portConstraint=eastwest;" parent="2mJwRisrd1SAQ4KJemB8-2" vertex="1">
          <mxGeometry y="26" width="120" height="26" as="geometry" />
        </mxCell>
        <mxCell id="2mJwRisrd1SAQ4KJemB8-4" value="AMGType" style="text;strokeColor=none;fillColor=none;align=left;verticalAlign=top;spacingLeft=4;spacingRight=4;overflow=hidden;rotatable=0;points=[[0,0.5],[1,0.5]];portConstraint=eastwest;" parent="2mJwRisrd1SAQ4KJemB8-2" vertex="1">
          <mxGeometry y="52" width="120" height="26" as="geometry" />
        </mxCell>
        <mxCell id="2mJwRisrd1SAQ4KJemB8-5" value="regionDomains" style="text;strokeColor=none;fillColor=none;align=left;verticalAlign=top;spacingLeft=4;spacingRight=4;overflow=hidden;rotatable=0;points=[[0,0.5],[1,0.5]];portConstraint=eastwest;" parent="2mJwRisrd1SAQ4KJemB8-2" vertex="1">
          <mxGeometry y="78" width="120" height="26" as="geometry" />
        </mxCell>
        <mxCell id="2mJwRisrd1SAQ4KJemB8-6" value="应用 App" style="swimlane;fontStyle=0;childLayout=stackLayout;horizontal=1;startSize=26;horizontalStack=0;resizeParent=1;resizeParentMax=0;resizeLast=0;collapsible=1;marginBottom=0;fillColor=#000000;fontColor=#FFFFFF;" parent="2mJwRisrd1SAQ4KJemB8-1" vertex="1">
          <mxGeometry x="200" y="40" width="120" height="206" as="geometry">
            <mxRectangle x="50" y="100" width="60" height="26" as="alternateBounds" />
          </mxGeometry>
        </mxCell>
        <mxCell id="2mJwRisrd1SAQ4KJemB8-7" value="appId" style="text;strokeColor=none;fillColor=none;align=left;verticalAlign=top;spacingLeft=4;spacingRight=4;overflow=hidden;rotatable=0;points=[[0,0.5],[1,0.5]];portConstraint=eastwest;" parent="2mJwRisrd1SAQ4KJemB8-6" vertex="1">
          <mxGeometry y="26" width="120" height="26" as="geometry" />
        </mxCell>
        <mxCell id="2mJwRisrd1SAQ4KJemB8-8" value="appKey" style="text;strokeColor=none;fillColor=none;align=left;verticalAlign=top;spacingLeft=4;spacingRight=4;overflow=hidden;rotatable=0;points=[[0,0.5],[1,0.5]];portConstraint=eastwest;" parent="2mJwRisrd1SAQ4KJemB8-6" vertex="1">
          <mxGeometry y="52" width="120" height="26" as="geometry" />
        </mxCell>
        <mxCell id="2mJwRisrd1SAQ4KJemB8-11" value="appSecret" style="text;strokeColor=none;fillColor=none;align=left;verticalAlign=top;spacingLeft=4;spacingRight=4;overflow=hidden;rotatable=0;points=[[0,0.5],[1,0.5]];portConstraint=eastwest;" parent="2mJwRisrd1SAQ4KJemB8-6" vertex="1">
          <mxGeometry y="78" width="120" height="26" as="geometry" />
        </mxCell>
        <mxCell id="2mJwRisrd1SAQ4KJemB8-12" value="homeAMGId" style="text;strokeColor=none;fillColor=none;align=left;verticalAlign=top;spacingLeft=4;spacingRight=4;overflow=hidden;rotatable=0;points=[[0,0.5],[1,0.5]];portConstraint=eastwest;fontStyle=1" parent="2mJwRisrd1SAQ4KJemB8-6" vertex="1">
          <mxGeometry y="104" width="120" height="26" as="geometry" />
        </mxCell>
        <mxCell id="2mJwRisrd1SAQ4KJemB8-13" value="rateLimit" style="text;strokeColor=none;fillColor=none;align=left;verticalAlign=top;spacingLeft=4;spacingRight=4;overflow=hidden;rotatable=0;points=[[0,0.5],[1,0.5]];portConstraint=eastwest;" parent="2mJwRisrd1SAQ4KJemB8-6" vertex="1">
          <mxGeometry y="130" width="120" height="26" as="geometry" />
        </mxCell>
        <mxCell id="2mJwRisrd1SAQ4KJemB8-14" value="timeout" style="text;strokeColor=none;fillColor=none;align=left;verticalAlign=top;spacingLeft=4;spacingRight=4;overflow=hidden;rotatable=0;points=[[0,0.5],[1,0.5]];portConstraint=eastwest;" parent="2mJwRisrd1SAQ4KJemB8-6" vertex="1">
          <mxGeometry y="156" width="120" height="26" as="geometry" />
        </mxCell>
        <mxCell id="2mJwRisrd1SAQ4KJemB8-9" value="sla" style="text;strokeColor=none;fillColor=none;align=left;verticalAlign=top;spacingLeft=4;spacingRight=4;overflow=hidden;rotatable=0;points=[[0,0.5],[1,0.5]];portConstraint=eastwest;" parent="2mJwRisrd1SAQ4KJemB8-6" vertex="1">
          <mxGeometry y="182" width="120" height="24" as="geometry" />
        </mxCell>
        <mxCell id="2mJwRisrd1SAQ4KJemB8-15" value="应用 服务授权" style="swimlane;fontStyle=0;childLayout=stackLayout;horizontal=1;startSize=26;horizontalStack=0;resizeParent=1;resizeParentMax=0;resizeLast=0;collapsible=1;marginBottom=0;fillColor=#000000;fontColor=#FFFFFF;" parent="2mJwRisrd1SAQ4KJemB8-1" vertex="1">
          <mxGeometry x="440" y="40" width="120" height="104" as="geometry">
            <mxRectangle x="50" y="100" width="60" height="26" as="alternateBounds" />
          </mxGeometry>
        </mxCell>
        <mxCell id="2mJwRisrd1SAQ4KJemB8-16" value="apiCode" style="text;strokeColor=none;fillColor=none;align=left;verticalAlign=top;spacingLeft=4;spacingRight=4;overflow=hidden;rotatable=0;points=[[0,0.5],[1,0.5]];portConstraint=eastwest;" parent="2mJwRisrd1SAQ4KJemB8-15" vertex="1">
          <mxGeometry y="26" width="120" height="26" as="geometry" />
        </mxCell>
        <mxCell id="2mJwRisrd1SAQ4KJemB8-17" value="versionList" style="text;strokeColor=none;fillColor=none;align=left;verticalAlign=top;spacingLeft=4;spacingRight=4;overflow=hidden;rotatable=0;points=[[0,0.5],[1,0.5]];portConstraint=eastwest;" parent="2mJwRisrd1SAQ4KJemB8-15" vertex="1">
          <mxGeometry y="52" width="120" height="26" as="geometry" />
        </mxCell>
        <mxCell id="2mJwRisrd1SAQ4KJemB8-18" value="rateLimit" style="text;strokeColor=none;fillColor=none;align=left;verticalAlign=top;spacingLeft=4;spacingRight=4;overflow=hidden;rotatable=0;points=[[0,0.5],[1,0.5]];portConstraint=eastwest;" parent="2mJwRisrd1SAQ4KJemB8-15" vertex="1">
          <mxGeometry y="78" width="120" height="26" as="geometry" />
        </mxCell>
        <mxCell id="2mJwRisrd1SAQ4KJemB8-36" value="" style="endArrow=open;endFill=1;endSize=12;html=1;fontColor=#FFFFFF;" parent="2mJwRisrd1SAQ4KJemB8-1" source="2mJwRisrd1SAQ4KJemB8-8" edge="1">
          <mxGeometry width="160" relative="1" as="geometry">
            <mxPoint x="320" y="105" as="sourcePoint" />
            <mxPoint x="440" y="105" as="targetPoint" />
          </mxGeometry>
        </mxCell>
        <mxCell id="2mJwRisrd1SAQ4KJemB8-40" value="&lt;font color=&quot;#3333ff&quot;&gt;1：N&lt;/font&gt;" style="edgeLabel;html=1;align=center;verticalAlign=middle;resizable=0;points=[];fontColor=#FFFFFF;" parent="2mJwRisrd1SAQ4KJemB8-36" vertex="1" connectable="0">
          <mxGeometry x="-0.1667" y="-3" relative="1" as="geometry">
            <mxPoint y="-3" as="offset" />
          </mxGeometry>
        </mxCell>
        <mxCell id="2mJwRisrd1SAQ4KJemB8-41" value="服务信息" style="swimlane;fontStyle=0;childLayout=stackLayout;horizontal=1;startSize=26;horizontalStack=0;resizeParent=1;resizeParentMax=0;resizeLast=0;collapsible=1;marginBottom=0;fillColor=#000000;fontColor=#FFFFFF;" parent="2mJwRisrd1SAQ4KJemB8-1" vertex="1">
          <mxGeometry x="640" y="40" width="130" height="258" as="geometry">
            <mxRectangle x="50" y="100" width="60" height="26" as="alternateBounds" />
          </mxGeometry>
        </mxCell>
        <mxCell id="2mJwRisrd1SAQ4KJemB8-42" value="apiCode" style="text;strokeColor=none;fillColor=none;align=left;verticalAlign=top;spacingLeft=4;spacingRight=4;overflow=hidden;rotatable=0;points=[[0,0.5],[1,0.5]];portConstraint=eastwest;" parent="2mJwRisrd1SAQ4KJemB8-41" vertex="1">
          <mxGeometry y="26" width="130" height="26" as="geometry" />
        </mxCell>
        <mxCell id="2mJwRisrd1SAQ4KJemB8-43" value="apiVersion" style="text;strokeColor=none;fillColor=none;align=left;verticalAlign=top;spacingLeft=4;spacingRight=4;overflow=hidden;rotatable=0;points=[[0,0.5],[1,0.5]];portConstraint=eastwest;" parent="2mJwRisrd1SAQ4KJemB8-41" vertex="1">
          <mxGeometry y="52" width="130" height="26" as="geometry" />
        </mxCell>
        <mxCell id="2mJwRisrd1SAQ4KJemB8-44" value="isStandard" style="text;strokeColor=none;fillColor=none;align=left;verticalAlign=top;spacingLeft=4;spacingRight=4;overflow=hidden;rotatable=0;points=[[0,0.5],[1,0.5]];portConstraint=eastwest;" parent="2mJwRisrd1SAQ4KJemB8-41" vertex="1">
          <mxGeometry y="78" width="130" height="26" as="geometry" />
        </mxCell>
        <mxCell id="2mJwRisrd1SAQ4KJemB8-48" value="sla" style="text;strokeColor=none;fillColor=none;align=left;verticalAlign=top;spacingLeft=4;spacingRight=4;overflow=hidden;rotatable=0;points=[[0,0.5],[1,0.5]];portConstraint=eastwest;" parent="2mJwRisrd1SAQ4KJemB8-41" vertex="1">
          <mxGeometry y="104" width="130" height="24" as="geometry" />
        </mxCell>
        <mxCell id="2mJwRisrd1SAQ4KJemB8-45" value="appId" style="text;strokeColor=none;fillColor=none;align=left;verticalAlign=top;spacingLeft=4;spacingRight=4;overflow=hidden;rotatable=0;points=[[0,0.5],[1,0.5]];portConstraint=eastwest;fontStyle=0" parent="2mJwRisrd1SAQ4KJemB8-41" vertex="1">
          <mxGeometry y="128" width="130" height="26" as="geometry" />
        </mxCell>
        <mxCell id="2mJwRisrd1SAQ4KJemB8-46" value="homeAMGId" style="text;strokeColor=none;fillColor=none;align=left;verticalAlign=top;spacingLeft=4;spacingRight=4;overflow=hidden;rotatable=0;points=[[0,0.5],[1,0.5]];portConstraint=eastwest;" parent="2mJwRisrd1SAQ4KJemB8-41" vertex="1">
          <mxGeometry y="154" width="130" height="26" as="geometry" />
        </mxCell>
        <mxCell id="2mJwRisrd1SAQ4KJemB8-49" value="servicePath" style="text;strokeColor=none;fillColor=none;align=left;verticalAlign=top;spacingLeft=4;spacingRight=4;overflow=hidden;rotatable=0;points=[[0,0.5],[1,0.5]];portConstraint=eastwest;" parent="2mJwRisrd1SAQ4KJemB8-41" vertex="1">
          <mxGeometry y="180" width="130" height="26" as="geometry" />
        </mxCell>
        <mxCell id="2mJwRisrd1SAQ4KJemB8-50" value="serviceTimeout" style="text;strokeColor=none;fillColor=none;align=left;verticalAlign=top;spacingLeft=4;spacingRight=4;overflow=hidden;rotatable=0;points=[[0,0.5],[1,0.5]];portConstraint=eastwest;" parent="2mJwRisrd1SAQ4KJemB8-41" vertex="1">
          <mxGeometry y="206" width="130" height="26" as="geometry" />
        </mxCell>
        <mxCell id="2mJwRisrd1SAQ4KJemB8-47" value="regionAddress、ratio" style="text;strokeColor=none;fillColor=none;align=left;verticalAlign=top;spacingLeft=4;spacingRight=4;overflow=hidden;rotatable=0;points=[[0,0.5],[1,0.5]];portConstraint=eastwest;" parent="2mJwRisrd1SAQ4KJemB8-41" vertex="1">
          <mxGeometry y="232" width="130" height="26" as="geometry" />
        </mxCell>
        <mxCell id="2mJwRisrd1SAQ4KJemB8-53" value="" style="endArrow=classicThin;html=1;rounded=0;dashed=1;dashPattern=1 2;fontColor=#FFFFFF;entryX=0;entryY=0.5;entryDx=0;entryDy=0;exitX=1;exitY=0.5;exitDx=0;exitDy=0;endFill=1;" parent="2mJwRisrd1SAQ4KJemB8-1" source="2mJwRisrd1SAQ4KJemB8-17" target="2mJwRisrd1SAQ4KJemB8-43" edge="1">
          <mxGeometry relative="1" as="geometry">
            <mxPoint x="560" y="100" as="sourcePoint" />
            <mxPoint x="720" y="100" as="targetPoint" />
          </mxGeometry>
        </mxCell>
        <mxCell id="2mJwRisrd1SAQ4KJemB8-54" value="1" style="resizable=0;html=1;align=right;verticalAlign=bottom;" parent="2mJwRisrd1SAQ4KJemB8-53" connectable="0" vertex="1">
          <mxGeometry x="1" relative="1" as="geometry" />
        </mxCell>
      </root>
    </mxGraphModel>
  </diagram>
  <diagram id="D9CSbNTe0AgyzVjh2CmW" name="缓存同步刷新逻辑">
    <mxGraphModel dx="1053" dy="482" grid="1" gridSize="10" guides="1" tooltips="1" connect="1" arrows="1" fold="1" page="1" pageScale="1" pageWidth="980" pageHeight="690" math="0" shadow="0">
      <root>
        <mxCell id="VqICbRK8kZ5pyACttgq_-0" />
        <mxCell id="VqICbRK8kZ5pyACttgq_-1" parent="VqICbRK8kZ5pyACttgq_-0" />
        <mxCell id="s_kaP2D-99kkr4zUK_fV-11" value="" style="edgeStyle=orthogonalEdgeStyle;curved=1;rounded=0;orthogonalLoop=1;jettySize=auto;html=1;dashed=1;startArrow=none;startFill=0;endArrow=classicThin;endFill=1;" edge="1" parent="VqICbRK8kZ5pyACttgq_-1" source="32OFL83NRwn18ms2vOPr-0" target="s_kaP2D-99kkr4zUK_fV-9">
          <mxGeometry relative="1" as="geometry" />
        </mxCell>
        <mxCell id="32OFL83NRwn18ms2vOPr-0" value="" style="shape=cylinder3;whiteSpace=wrap;html=1;boundedLbl=1;backgroundOutline=1;size=15;rounded=0;sketch=0;fillColor=#d0cee2;strokeColor=#56517e;" vertex="1" parent="VqICbRK8kZ5pyACttgq_-1">
          <mxGeometry x="205" y="545" width="60" height="80" as="geometry" />
        </mxCell>
        <mxCell id="s_kaP2D-99kkr4zUK_fV-1" value="" style="edgeStyle=orthogonalEdgeStyle;curved=1;rounded=0;orthogonalLoop=1;jettySize=auto;html=1;startArrow=none;startFill=0;endArrow=classicThin;endFill=1;" edge="1" parent="VqICbRK8kZ5pyACttgq_-1" source="Gg_ki1d3kfCkAQZQYyUj-0" target="s_kaP2D-99kkr4zUK_fV-0">
          <mxGeometry relative="1" as="geometry" />
        </mxCell>
        <mxCell id="Gg_ki1d3kfCkAQZQYyUj-0" value="GlobalDataSyncNotice&lt;br&gt;&lt;br&gt;接收增量、全量更新通知" style="rounded=0;shadow=1;glass=0;sketch=0;horizontal=1;verticalAlign=top;whiteSpace=wrap;labelBackgroundColor=none;html=1;fillColor=#dae8fc;strokeColor=#6c8ebf;" vertex="1" parent="VqICbRK8kZ5pyACttgq_-1">
          <mxGeometry x="160" y="65" width="150" height="60" as="geometry" />
        </mxCell>
        <mxCell id="s_kaP2D-99kkr4zUK_fV-7" value="" style="edgeStyle=orthogonalEdgeStyle;curved=1;rounded=0;orthogonalLoop=1;jettySize=auto;html=1;startArrow=none;startFill=0;endArrow=classicThin;endFill=1;dashed=1;" edge="1" parent="VqICbRK8kZ5pyACttgq_-1" source="s_kaP2D-99kkr4zUK_fV-0" target="s_kaP2D-99kkr4zUK_fV-6">
          <mxGeometry relative="1" as="geometry" />
        </mxCell>
        <mxCell id="s_kaP2D-99kkr4zUK_fV-0" value="放入任务队列" style="rounded=0;shadow=1;glass=0;sketch=0;horizontal=1;verticalAlign=top;whiteSpace=wrap;labelBackgroundColor=none;html=1;fillColor=#dae8fc;strokeColor=#6c8ebf;" vertex="1" parent="VqICbRK8kZ5pyACttgq_-1">
          <mxGeometry x="160" y="165" width="150" height="30" as="geometry" />
        </mxCell>
        <mxCell id="s_kaP2D-99kkr4zUK_fV-8" value="" style="edgeStyle=orthogonalEdgeStyle;curved=1;rounded=0;orthogonalLoop=1;jettySize=auto;html=1;startArrow=none;startFill=0;endArrow=classicThin;endFill=1;dashed=1;" edge="1" parent="VqICbRK8kZ5pyACttgq_-1" source="s_kaP2D-99kkr4zUK_fV-3" target="s_kaP2D-99kkr4zUK_fV-6">
          <mxGeometry relative="1" as="geometry" />
        </mxCell>
        <mxCell id="s_kaP2D-99kkr4zUK_fV-10" value="" style="edgeStyle=orthogonalEdgeStyle;curved=1;rounded=0;orthogonalLoop=1;jettySize=auto;html=1;startArrow=none;startFill=0;endArrow=classicThin;endFill=1;" edge="1" parent="VqICbRK8kZ5pyACttgq_-1" source="s_kaP2D-99kkr4zUK_fV-3" target="s_kaP2D-99kkr4zUK_fV-9">
          <mxGeometry relative="1" as="geometry" />
        </mxCell>
        <mxCell id="s_kaP2D-99kkr4zUK_fV-3" value="线程池" style="ellipse;shape=doubleEllipse;whiteSpace=wrap;html=1;aspect=fixed;rounded=0;shadow=0;sketch=0;strokeColor=#000000;strokeWidth=1;fillColor=#ffffff;verticalAlign=middle;" vertex="1" parent="VqICbRK8kZ5pyACttgq_-1">
          <mxGeometry x="195" y="315" width="80" height="80" as="geometry" />
        </mxCell>
        <mxCell id="s_kaP2D-99kkr4zUK_fV-6" value="" style="outlineConnect=0;dashed=0;verticalLabelPosition=bottom;verticalAlign=top;align=center;html=1;shape=mxgraph.aws3.queue;fillColor=#D9A741;gradientColor=none;rounded=0;shadow=0;sketch=0;strokeColor=#000000;strokeWidth=1;" vertex="1" parent="VqICbRK8kZ5pyACttgq_-1">
          <mxGeometry x="198.25" y="225" width="73.5" height="48" as="geometry" />
        </mxCell>
        <mxCell id="kNQq5YUqnynGrqkVMdip-7" style="edgeStyle=orthogonalEdgeStyle;rounded=0;orthogonalLoop=1;jettySize=auto;html=1;entryX=0;entryY=0.25;entryDx=0;entryDy=0;startArrow=none;startFill=0;endArrow=classicThin;endFill=1;" edge="1" parent="VqICbRK8kZ5pyACttgq_-1" target="kNQq5YUqnynGrqkVMdip-3">
          <mxGeometry relative="1" as="geometry">
            <mxPoint x="380" y="450" as="sourcePoint" />
            <Array as="points">
              <mxPoint x="380" y="465" />
              <mxPoint x="380" y="551" />
            </Array>
          </mxGeometry>
        </mxCell>
        <mxCell id="s_kaP2D-99kkr4zUK_fV-9" value="增量或全量任务执行" style="rounded=0;shadow=1;glass=0;sketch=0;horizontal=1;verticalAlign=top;whiteSpace=wrap;labelBackgroundColor=none;html=1;fillColor=#dae8fc;strokeColor=#6c8ebf;" vertex="1" parent="VqICbRK8kZ5pyACttgq_-1">
          <mxGeometry x="160" y="435" width="150" height="30" as="geometry" />
        </mxCell>
        <mxCell id="Vcdo6KaPcn_qzzn52VrN-60" value="" style="group" vertex="1" connectable="0" parent="VqICbRK8kZ5pyACttgq_-1">
          <mxGeometry x="450" y="360" width="410" height="75" as="geometry" />
        </mxCell>
        <mxCell id="Vcdo6KaPcn_qzzn52VrN-59" value="HASH" style="rounded=0;whiteSpace=wrap;html=1;shadow=1;sketch=0;strokeWidth=1;verticalAlign=top;" vertex="1" parent="Vcdo6KaPcn_qzzn52VrN-60">
          <mxGeometry width="410" height="75" as="geometry" />
        </mxCell>
        <mxCell id="Vcdo6KaPcn_qzzn52VrN-58" value="" style="edgeStyle=orthogonalEdgeStyle;rounded=0;orthogonalLoop=1;jettySize=auto;html=1;startArrow=none;startFill=0;endArrow=classicThin;endFill=1;" edge="1" parent="Vcdo6KaPcn_qzzn52VrN-60" source="s_kaP2D-99kkr4zUK_fV-36">
          <mxGeometry relative="1" as="geometry">
            <mxPoint x="199.14285714285714" y="45" as="targetPoint" />
          </mxGeometry>
        </mxCell>
        <mxCell id="s_kaP2D-99kkr4zUK_fV-36" value="&lt;font style=&quot;font-size: 12px&quot;&gt;缓存类型前缀&lt;/font&gt;" style="text;strokeColor=#0e8088;fillColor=#b0e3e6;html=1;fontSize=24;fontStyle=1;verticalAlign=middle;align=center;rounded=0;shadow=0;sketch=0;" vertex="1" parent="Vcdo6KaPcn_qzzn52VrN-60">
          <mxGeometry x="11.714285714285715" y="20" width="140.57142857142858" height="50" as="geometry" />
        </mxCell>
        <mxCell id="Vcdo6KaPcn_qzzn52VrN-51" value="" style="group" vertex="1" connectable="0" parent="Vcdo6KaPcn_qzzn52VrN-60">
          <mxGeometry x="199.14285714285714" y="25" width="187.42857142857144" height="40" as="geometry" />
        </mxCell>
        <mxCell id="Vcdo6KaPcn_qzzn52VrN-52" value="KEY string" style="rounded=0;whiteSpace=wrap;html=1;shadow=0;sketch=0;strokeColor=#001DBC;strokeWidth=1;fillColor=#0050ef;verticalAlign=middle;fontColor=#ffffff;" vertex="1" parent="Vcdo6KaPcn_qzzn52VrN-51">
          <mxGeometry width="93.71428571428572" height="20" as="geometry" />
        </mxCell>
        <mxCell id="Vcdo6KaPcn_qzzn52VrN-53" value="VALUE&amp;nbsp;" style="rounded=0;whiteSpace=wrap;html=1;shadow=0;sketch=0;strokeColor=#001DBC;strokeWidth=1;fillColor=#0050ef;verticalAlign=middle;fontColor=#ffffff;" vertex="1" parent="Vcdo6KaPcn_qzzn52VrN-51">
          <mxGeometry x="93.71428571428572" width="93.71428571428572" height="20" as="geometry" />
        </mxCell>
        <mxCell id="Vcdo6KaPcn_qzzn52VrN-54" value="update-time" style="rounded=0;whiteSpace=wrap;html=1;shadow=0;sketch=0;strokeColor=#000000;strokeWidth=1;fillColor=#ffffff;verticalAlign=middle;" vertex="1" parent="Vcdo6KaPcn_qzzn52VrN-51">
          <mxGeometry y="20" width="93.71428571428572" height="20" as="geometry" />
        </mxCell>
        <mxCell id="Vcdo6KaPcn_qzzn52VrN-55" value="开始更新时间戳" style="rounded=0;whiteSpace=wrap;html=1;shadow=0;sketch=0;strokeColor=#000000;strokeWidth=1;fillColor=#ffffff;verticalAlign=middle;" vertex="1" parent="Vcdo6KaPcn_qzzn52VrN-51">
          <mxGeometry x="93.71428571428572" y="20" width="93.71428571428572" height="20" as="geometry" />
        </mxCell>
        <mxCell id="Vcdo6KaPcn_qzzn52VrN-65" value="全量" style="edgeStyle=orthogonalEdgeStyle;rounded=0;orthogonalLoop=1;jettySize=auto;html=1;startArrow=classicThin;startFill=1;endArrow=none;endFill=0;" edge="1" parent="VqICbRK8kZ5pyACttgq_-1" source="Vcdo6KaPcn_qzzn52VrN-59" target="s_kaP2D-99kkr4zUK_fV-9">
          <mxGeometry x="0.5385" relative="1" as="geometry">
            <mxPoint as="offset" />
          </mxGeometry>
        </mxCell>
        <mxCell id="kNQq5YUqnynGrqkVMdip-6" value="" style="group" vertex="1" connectable="0" parent="VqICbRK8kZ5pyACttgq_-1">
          <mxGeometry x="450" y="490" width="260" height="50" as="geometry" />
        </mxCell>
        <mxCell id="kNQq5YUqnynGrqkVMdip-1" value="KEY string" style="rounded=0;whiteSpace=wrap;html=1;shadow=1;sketch=0;strokeColor=#3700CC;strokeWidth=1;fillColor=#6a00ff;verticalAlign=top;fontColor=#ffffff;" vertex="1" parent="kNQq5YUqnynGrqkVMdip-6">
          <mxGeometry width="140" height="25" as="geometry" />
        </mxCell>
        <mxCell id="kNQq5YUqnynGrqkVMdip-2" value="VALUE string" style="rounded=0;whiteSpace=wrap;html=1;shadow=1;sketch=0;strokeColor=#001DBC;strokeWidth=1;fillColor=#0050ef;verticalAlign=top;fontColor=#ffffff;" vertex="1" parent="kNQq5YUqnynGrqkVMdip-6">
          <mxGeometry x="140" width="120" height="25" as="geometry" />
        </mxCell>
        <mxCell id="kNQq5YUqnynGrqkVMdip-3" value="缓存类型前缀+业务key" style="rounded=0;whiteSpace=wrap;html=1;shadow=1;sketch=0;strokeColor=#000000;strokeWidth=1;fillColor=#ffffff;verticalAlign=top;" vertex="1" parent="kNQq5YUqnynGrqkVMdip-6">
          <mxGeometry y="25" width="140" height="25" as="geometry" />
        </mxCell>
        <mxCell id="kNQq5YUqnynGrqkVMdip-4" value="json value" style="rounded=0;whiteSpace=wrap;html=1;shadow=1;sketch=0;strokeColor=#000000;strokeWidth=1;fillColor=#ffffff;verticalAlign=top;" vertex="1" parent="kNQq5YUqnynGrqkVMdip-6">
          <mxGeometry x="140" y="25" width="120" height="25" as="geometry" />
        </mxCell>
      </root>
    </mxGraphModel>
  </diagram>
</mxfile>
